solid ASCII
  facet normal 0.000000e+00 -9.945219e-01 1.045285e-01
    outer loop
      vertex   4.500000e+01 1.180593e+00 1.029108e+01
      vertex   3.875000e+01 1.180593e+00 1.029108e+01
      vertex   4.500000e+01 1.150000e+00 1.000000e+01
    endloop
  endfacet
  facet normal 0.000000e+00 -9.945219e-01 1.045285e-01
    outer loop
      vertex   4.500000e+01 1.150000e+00 1.000000e+01
      vertex   3.875000e+01 1.180593e+00 1.029108e+01
      vertex   3.875000e+01 1.150000e+00 1.000000e+01
    endloop
  endfacet
  facet normal -0.000000e+00 -9.945219e-01 -1.045285e-01
    outer loop
      vertex   4.500000e+01 1.150000e+00 1.000000e+01
      vertex   3.875000e+01 1.150000e+00 1.000000e+01
      vertex   4.500000e+01 1.180593e+00 9.708924e+00
    endloop
  endfacet
  facet normal -0.000000e+00 -9.945219e-01 -1.045285e-01
    outer loop
      vertex   4.500000e+01 1.180593e+00 9.708924e+00
      vertex   3.875000e+01 1.150000e+00 1.000000e+01
      vertex   3.875000e+01 1.180593e+00 9.708924e+00
    endloop
  endfacet
  facet normal -0.000000e+00 -9.510565e-01 -3.090170e-01
    outer loop
      vertex   4.500000e+01 1.180593e+00 9.708924e+00
      vertex   3.875000e+01 1.180593e+00 9.708924e+00
      vertex   4.500000e+01 1.271036e+00 9.430569e+00
    endloop
  endfacet
  facet normal -0.000000e+00 -9.510565e-01 -3.090170e-01
    outer loop
      vertex   4.500000e+01 1.271036e+00 9.430569e+00
      vertex   3.875000e+01 1.180593e+00 9.708924e+00
      vertex   3.875000e+01 1.271036e+00 9.430569e+00
    endloop
  endfacet
  facet normal -0.000000e+00 -8.660254e-01 -5.000000e-01
    outer loop
      vertex   4.500000e+01 1.271036e+00 9.430569e+00
      vertex   3.875000e+01 1.271036e+00 9.430569e+00
      vertex   4.500000e+01 1.417376e+00 9.177101e+00
    endloop
  endfacet
  facet normal -0.000000e+00 -8.660254e-01 -5.000000e-01
    outer loop
      vertex   4.500000e+01 1.417376e+00 9.177101e+00
      vertex   3.875000e+01 1.271036e+00 9.430569e+00
      vertex   3.875000e+01 1.417376e+00 9.177101e+00
    endloop
  endfacet
  facet normal -0.000000e+00 -7.431448e-01 -6.691306e-01
    outer loop
      vertex   4.500000e+01 1.417376e+00 9.177101e+00
      vertex   3.875000e+01 1.417376e+00 9.177101e+00
      vertex   4.500000e+01 1.613217e+00 8.959597e+00
    endloop
  endfacet
  facet normal -0.000000e+00 -7.431448e-01 -6.691306e-01
    outer loop
      vertex   4.500000e+01 1.613217e+00 8.959597e+00
      vertex   3.875000e+01 1.417376e+00 9.177101e+00
      vertex   3.875000e+01 1.613217e+00 8.959597e+00
    endloop
  endfacet
  facet normal -0.000000e+00 -5.877853e-01 -8.090170e-01
    outer loop
      vertex   4.500000e+01 1.613217e+00 8.959597e+00
      vertex   3.875000e+01 1.613217e+00 8.959597e+00
      vertex   4.500000e+01 1.850000e+00 8.787564e+00
    endloop
  endfacet
  facet normal -0.000000e+00 -5.877853e-01 -8.090170e-01
    outer loop
      vertex   4.500000e+01 1.850000e+00 8.787564e+00
      vertex   3.875000e+01 1.613217e+00 8.959597e+00
      vertex   3.875000e+01 1.850000e+00 8.787564e+00
    endloop
  endfacet
  facet normal -0.000000e+00 -4.067366e-01 -9.135455e-01
    outer loop
      vertex   4.500000e+01 1.850000e+00 8.787564e+00
      vertex   3.875000e+01 1.850000e+00 8.787564e+00
      vertex   4.500000e+01 2.117376e+00 8.668521e+00
    endloop
  endfacet
  facet normal -0.000000e+00 -4.067366e-01 -9.135455e-01
    outer loop
      vertex   4.500000e+01 2.117376e+00 8.668521e+00
      vertex   3.875000e+01 1.850000e+00 8.787564e+00
      vertex   3.875000e+01 2.117376e+00 8.668521e+00
    endloop
  endfacet
  facet normal -0.000000e+00 -2.079117e-01 -9.781476e-01
    outer loop
      vertex   4.500000e+01 2.117376e+00 8.668521e+00
      vertex   3.875000e+01 2.117376e+00 8.668521e+00
      vertex   4.500000e+01 2.403660e+00 8.607669e+00
    endloop
  endfacet
  facet normal -0.000000e+00 -2.079117e-01 -9.781476e-01
    outer loop
      vertex   4.500000e+01 2.403660e+00 8.607669e+00
      vertex   3.875000e+01 2.117376e+00 8.668521e+00
      vertex   3.875000e+01 2.403660e+00 8.607669e+00
    endloop
  endfacet
  facet normal 0.000000e+00 0.000000e+00 -1.000000e+00
    outer loop
      vertex   4.500000e+01 2.403660e+00 8.607669e+00
      vertex   3.875000e+01 2.403660e+00 8.607669e+00
      vertex   4.500000e+01 2.696340e+00 8.607669e+00
    endloop
  endfacet
  facet normal -0.000000e+00 0.000000e+00 -1.000000e+00
    outer loop
      vertex   4.500000e+01 2.696340e+00 8.607669e+00
      vertex   3.875000e+01 2.403660e+00 8.607669e+00
      vertex   3.875000e+01 2.696340e+00 8.607669e+00
    endloop
  endfacet
  facet normal 1.477301e-17 2.079117e-01 -9.781476e-01
    outer loop
      vertex   4.500000e+01 2.696340e+00 8.607669e+00
      vertex   3.875000e+01 2.696340e+00 8.607669e+00
      vertex   4.500000e+01 2.982624e+00 8.668521e+00
    endloop
  endfacet
  facet normal 0.000000e+00 2.079117e-01 -9.781476e-01
    outer loop
      vertex   4.500000e+01 2.982624e+00 8.668521e+00
      vertex   3.875000e+01 2.696340e+00 8.607669e+00
      vertex   3.875000e+01 2.982624e+00 8.668521e+00
    endloop
  endfacet
  facet normal 0.000000e+00 4.067366e-01 -9.135455e-01
    outer loop
      vertex   4.500000e+01 2.982624e+00 8.668521e+00
      vertex   3.875000e+01 2.982624e+00 8.668521e+00
      vertex   4.500000e+01 3.250000e+00 8.787564e+00
    endloop
  endfacet
  facet normal 0.000000e+00 4.067366e-01 -9.135455e-01
    outer loop
      vertex   4.500000e+01 3.250000e+00 8.787564e+00
      vertex   3.875000e+01 2.982624e+00 8.668521e+00
      vertex   3.875000e+01 3.250000e+00 8.787564e+00
    endloop
  endfacet
  facet normal 0.000000e+00 5.877853e-01 -8.090170e-01
    outer loop
      vertex   4.500000e+01 3.250000e+00 8.787564e+00
      vertex   3.875000e+01 3.250000e+00 8.787564e+00
      vertex   4.500000e+01 3.486783e+00 8.959597e+00
    endloop
  endfacet
  facet normal 4.176465e-17 5.877853e-01 -8.090170e-01
    outer loop
      vertex   4.500000e+01 3.486783e+00 8.959597e+00
      vertex   3.875000e+01 3.250000e+00 8.787564e+00
      vertex   3.875000e+01 3.486783e+00 8.959597e+00
    endloop
  endfacet
  facet normal 5.280362e-17 7.431448e-01 -6.691306e-01
    outer loop
      vertex   4.500000e+01 3.486783e+00 8.959597e+00
      vertex   3.875000e+01 3.486783e+00 8.959597e+00
      vertex   4.500000e+01 3.682624e+00 9.177101e+00
    endloop
  endfacet
  facet normal 0.000000e+00 7.431448e-01 -6.691306e-01
    outer loop
      vertex   4.500000e+01 3.682624e+00 9.177101e+00
      vertex   3.875000e+01 3.486783e+00 8.959597e+00
      vertex   3.875000e+01 3.682624e+00 9.177101e+00
    endloop
  endfacet
  facet normal 0.000000e+00 8.660254e-01 -5.000000e-01
    outer loop
      vertex   4.500000e+01 3.682624e+00 9.177101e+00
      vertex   3.875000e+01 3.682624e+00 9.177101e+00
      vertex   4.500000e+01 3.828964e+00 9.430569e+00
    endloop
  endfacet
  facet normal 0.000000e+00 8.660254e-01 -5.000000e-01
    outer loop
      vertex   4.500000e+01 3.828964e+00 9.430569e+00
      vertex   3.875000e+01 3.682624e+00 9.177101e+00
      vertex   3.875000e+01 3.828964e+00 9.430569e+00
    endloop
  endfacet
  facet normal 0.000000e+00 9.510565e-01 -3.090170e-01
    outer loop
      vertex   4.500000e+01 3.828964e+00 9.430569e+00
      vertex   3.875000e+01 3.828964e+00 9.430569e+00
      vertex   4.500000e+01 3.919407e+00 9.708924e+00
    endloop
  endfacet
  facet normal 0.000000e+00 9.510565e-01 -3.090170e-01
    outer loop
      vertex   4.500000e+01 3.919407e+00 9.708924e+00
      vertex   3.875000e+01 3.828964e+00 9.430569e+00
      vertex   3.875000e+01 3.919407e+00 9.708924e+00
    endloop
  endfacet
  facet normal 0.000000e+00 9.945219e-01 -1.045285e-01
    outer loop
      vertex   4.500000e+01 3.919407e+00 9.708924e+00
      vertex   3.875000e+01 3.919407e+00 9.708924e+00
      vertex   4.500000e+01 3.950000e+00 1.000000e+01
    endloop
  endfacet
  facet normal 0.000000e+00 9.945219e-01 -1.045285e-01
    outer loop
      vertex   4.500000e+01 3.950000e+00 1.000000e+01
      vertex   3.875000e+01 3.919407e+00 9.708924e+00
      vertex   3.875000e+01 3.950000e+00 1.000000e+01
    endloop
  endfacet
  facet normal 0.000000e+00 9.945219e-01 1.045285e-01
    outer loop
      vertex   4.500000e+01 3.950000e+00 1.000000e+01
      vertex   3.875000e+01 3.950000e+00 1.000000e+01
      vertex   4.500000e+01 3.919407e+00 1.029108e+01
    endloop
  endfacet
  facet normal 0.000000e+00 9.945219e-01 1.045285e-01
    outer loop
      vertex   4.500000e+01 3.919407e+00 1.029108e+01
      vertex   3.875000e+01 3.950000e+00 1.000000e+01
      vertex   3.875000e+01 3.919407e+00 1.029108e+01
    endloop
  endfacet
  facet normal 0.000000e+00 9.510565e-01 3.090170e-01
    outer loop
      vertex   4.500000e+01 3.919407e+00 1.029108e+01
      vertex   3.875000e+01 3.919407e+00 1.029108e+01
      vertex   4.500000e+01 3.828964e+00 1.056943e+01
    endloop
  endfacet
  facet normal -6.757663e-17 9.510565e-01 3.090170e-01
    outer loop
      vertex   4.500000e+01 3.828964e+00 1.056943e+01
      vertex   3.875000e+01 3.919407e+00 1.029108e+01
      vertex   3.875000e+01 3.828964e+00 1.056943e+01
    endloop
  endfacet
  facet normal -6.153481e-17 8.660254e-01 5.000000e-01
    outer loop
      vertex   4.500000e+01 3.828964e+00 1.056943e+01
      vertex   3.875000e+01 3.828964e+00 1.056943e+01
      vertex   4.500000e+01 3.682624e+00 1.082290e+01
    endloop
  endfacet
  facet normal -6.153481e-17 8.660254e-01 5.000000e-01
    outer loop
      vertex   4.500000e+01 3.682624e+00 1.082290e+01
      vertex   3.875000e+01 3.828964e+00 1.056943e+01
      vertex   3.875000e+01 3.682624e+00 1.082290e+01
    endloop
  endfacet
  facet normal -5.280362e-17 7.431448e-01 6.691306e-01
    outer loop
      vertex   4.500000e+01 3.682624e+00 1.082290e+01
      vertex   3.875000e+01 3.682624e+00 1.082290e+01
      vertex   4.500000e+01 3.486783e+00 1.104040e+01
    endloop
  endfacet
  facet normal 0.000000e+00 7.431448e-01 6.691306e-01
    outer loop
      vertex   4.500000e+01 3.486783e+00 1.104040e+01
      vertex   3.875000e+01 3.682624e+00 1.082290e+01
      vertex   3.875000e+01 3.486783e+00 1.104040e+01
    endloop
  endfacet
  facet normal 0.000000e+00 5.877853e-01 8.090170e-01
    outer loop
      vertex   4.500000e+01 3.486783e+00 1.104040e+01
      vertex   3.875000e+01 3.486783e+00 1.104040e+01
      vertex   4.500000e+01 3.250000e+00 1.121244e+01
    endloop
  endfacet
  facet normal 0.000000e+00 5.877853e-01 8.090170e-01
    outer loop
      vertex   4.500000e+01 3.250000e+00 1.121244e+01
      vertex   3.875000e+01 3.486783e+00 1.104040e+01
      vertex   3.875000e+01 3.250000e+00 1.121244e+01
    endloop
  endfacet
  facet normal 0.000000e+00 4.067366e-01 9.135455e-01
    outer loop
      vertex   4.500000e+01 3.250000e+00 1.121244e+01
      vertex   3.875000e+01 3.250000e+00 1.121244e+01
      vertex   4.500000e+01 2.982624e+00 1.133148e+01
    endloop
  endfacet
  facet normal 0.000000e+00 4.067366e-01 9.135455e-01
    outer loop
      vertex   4.500000e+01 2.982624e+00 1.133148e+01
      vertex   3.875000e+01 3.250000e+00 1.121244e+01
      vertex   3.875000e+01 2.982624e+00 1.133148e+01
    endloop
  endfacet
  facet normal 0.000000e+00 2.079117e-01 9.781476e-01
    outer loop
      vertex   4.500000e+01 2.982624e+00 1.133148e+01
      vertex   3.875000e+01 2.982624e+00 1.133148e+01
      vertex   4.500000e+01 2.696340e+00 1.139233e+01
    endloop
  endfacet
  facet normal -2.954603e-17 2.079117e-01 9.781476e-01
    outer loop
      vertex   4.500000e+01 2.696340e+00 1.139233e+01
      vertex   3.875000e+01 2.982624e+00 1.133148e+01
      vertex   3.875000e+01 2.696340e+00 1.139233e+01
    endloop
  endfacet
  facet normal 0.000000e+00 0.000000e+00 1.000000e+00
    outer loop
      vertex   4.500000e+01 2.696340e+00 1.139233e+01
      vertex   3.875000e+01 2.696340e+00 1.139233e+01
      vertex   4.500000e+01 2.403660e+00 1.139233e+01
    endloop
  endfacet
  facet normal 0.000000e+00 0.000000e+00 1.000000e+00
    outer loop
      vertex   4.500000e+01 2.403660e+00 1.139233e+01
      vertex   3.875000e+01 2.696340e+00 1.139233e+01
      vertex   3.875000e+01 2.403660e+00 1.139233e+01
    endloop
  endfacet
  facet normal 0.000000e+00 -2.079117e-01 9.781476e-01
    outer loop
      vertex   4.500000e+01 2.403660e+00 1.139233e+01
      vertex   3.875000e+01 2.403660e+00 1.139233e+01
      vertex   4.500000e+01 2.117376e+00 1.133148e+01
    endloop
  endfacet
  facet normal 0.000000e+00 -2.079117e-01 9.781476e-01
    outer loop
      vertex   4.500000e+01 2.117376e+00 1.133148e+01
      vertex   3.875000e+01 2.403660e+00 1.139233e+01
      vertex   3.875000e+01 2.117376e+00 1.133148e+01
    endloop
  endfacet
  facet normal 0.000000e+00 -4.067366e-01 9.135455e-01
    outer loop
      vertex   4.500000e+01 2.117376e+00 1.133148e+01
      vertex   3.875000e+01 2.117376e+00 1.133148e+01
      vertex   4.500000e+01 1.850000e+00 1.121244e+01
    endloop
  endfacet
  facet normal 2.890038e-17 -4.067366e-01 9.135455e-01
    outer loop
      vertex   4.500000e+01 1.850000e+00 1.121244e+01
      vertex   3.875000e+01 2.117376e+00 1.133148e+01
      vertex   3.875000e+01 1.850000e+00 1.121244e+01
    endloop
  endfacet
  facet normal 4.176465e-17 -5.877853e-01 8.090170e-01
    outer loop
      vertex   4.500000e+01 1.850000e+00 1.121244e+01
      vertex   3.875000e+01 1.850000e+00 1.121244e+01
      vertex   4.500000e+01 1.613217e+00 1.104040e+01
    endloop
  endfacet
  facet normal -2.088233e-17 -5.877853e-01 8.090170e-01
    outer loop
      vertex   4.500000e+01 1.613217e+00 1.104040e+01
      vertex   3.875000e+01 1.850000e+00 1.121244e+01
      vertex   3.875000e+01 1.613217e+00 1.104040e+01
    endloop
  endfacet
  facet normal -2.640181e-17 -7.431448e-01 6.691306e-01
    outer loop
      vertex   4.500000e+01 1.613217e+00 1.104040e+01
      vertex   3.875000e+01 1.613217e+00 1.104040e+01
      vertex   4.500000e+01 1.417376e+00 1.082290e+01
    endloop
  endfacet
  facet normal -5.280362e-17 -7.431448e-01 6.691306e-01
    outer loop
      vertex   4.500000e+01 1.417376e+00 1.082290e+01
      vertex   3.875000e+01 1.613217e+00 1.104040e+01
      vertex   3.875000e+01 1.417376e+00 1.082290e+01
    endloop
  endfacet
  facet normal -6.153481e-17 -8.660254e-01 5.000000e-01
    outer loop
      vertex   4.500000e+01 1.417376e+00 1.082290e+01
      vertex   3.875000e+01 1.417376e+00 1.082290e+01
      vertex   4.500000e+01 1.271036e+00 1.056943e+01
    endloop
  endfacet
  facet normal 3.076740e-17 -8.660254e-01 5.000000e-01
    outer loop
      vertex   4.500000e+01 1.271036e+00 1.056943e+01
      vertex   3.875000e+01 1.417376e+00 1.082290e+01
      vertex   3.875000e+01 1.271036e+00 1.056943e+01
    endloop
  endfacet
  facet normal 3.378831e-17 -9.510565e-01 3.090170e-01
    outer loop
      vertex   4.500000e+01 1.271036e+00 1.056943e+01
      vertex   3.875000e+01 1.271036e+00 1.056943e+01
      vertex   4.500000e+01 1.180593e+00 1.029108e+01
    endloop
  endfacet
  facet normal 0.000000e+00 -9.510565e-01 3.090170e-01
    outer loop
      vertex   4.500000e+01 1.180593e+00 1.029108e+01
      vertex   3.875000e+01 1.271036e+00 1.056943e+01
      vertex   3.875000e+01 1.180593e+00 1.029108e+01
    endloop
  endfacet
  facet normal 0.000000e+00 -9.945219e-01 -1.045285e-01
    outer loop
      vertex   2.000000e+01 1.180593e+00 9.708924e+00
      vertex   2.625000e+01 1.180593e+00 9.708924e+00
      vertex   2.000000e+01 1.150000e+00 1.000000e+01
    endloop
  endfacet
  facet normal 0.000000e+00 -9.945219e-01 -1.045285e-01
    outer loop
      vertex   2.000000e+01 1.150000e+00 1.000000e+01
      vertex   2.625000e+01 1.180593e+00 9.708924e+00
      vertex   2.625000e+01 1.150000e+00 1.000000e+01
    endloop
  endfacet
  facet normal 0.000000e+00 -9.945219e-01 1.045285e-01
    outer loop
      vertex   2.000000e+01 1.150000e+00 1.000000e+01
      vertex   2.625000e+01 1.150000e+00 1.000000e+01
      vertex   2.000000e+01 1.180593e+00 1.029108e+01
    endloop
  endfacet
  facet normal 0.000000e+00 -9.945219e-01 1.045285e-01
    outer loop
      vertex   2.000000e+01 1.180593e+00 1.029108e+01
      vertex   2.625000e+01 1.150000e+00 1.000000e+01
      vertex   2.625000e+01 1.180593e+00 1.029108e+01
    endloop
  endfacet
  facet normal 0.000000e+00 -9.510565e-01 3.090170e-01
    outer loop
      vertex   2.000000e+01 1.180593e+00 1.029108e+01
      vertex   2.625000e+01 1.180593e+00 1.029108e+01
      vertex   2.000000e+01 1.271036e+00 1.056943e+01
    endloop
  endfacet
  facet normal 0.000000e+00 -9.510565e-01 3.090170e-01
    outer loop
      vertex   2.000000e+01 1.271036e+00 1.056943e+01
      vertex   2.625000e+01 1.180593e+00 1.029108e+01
      vertex   2.625000e+01 1.271036e+00 1.056943e+01
    endloop
  endfacet
  facet normal 0.000000e+00 -8.660254e-01 5.000000e-01
    outer loop
      vertex   2.000000e+01 1.271036e+00 1.056943e+01
      vertex   2.625000e+01 1.271036e+00 1.056943e+01
      vertex   2.000000e+01 1.417376e+00 1.082290e+01
    endloop
  endfacet
  facet normal 6.153481e-17 -8.660254e-01 5.000000e-01
    outer loop
      vertex   2.000000e+01 1.417376e+00 1.082290e+01
      vertex   2.625000e+01 1.271036e+00 1.056943e+01
      vertex   2.625000e+01 1.417376e+00 1.082290e+01
    endloop
  endfacet
  facet normal 5.280362e-17 -7.431448e-01 6.691306e-01
    outer loop
      vertex   2.000000e+01 1.417376e+00 1.082290e+01
      vertex   2.625000e+01 1.417376e+00 1.082290e+01
      vertex   2.000000e+01 1.613217e+00 1.104040e+01
    endloop
  endfacet
  facet normal 2.640181e-17 -7.431448e-01 6.691306e-01
    outer loop
      vertex   2.000000e+01 1.613217e+00 1.104040e+01
      vertex   2.625000e+01 1.417376e+00 1.082290e+01
      vertex   2.625000e+01 1.613217e+00 1.104040e+01
    endloop
  endfacet
  facet normal 2.088233e-17 -5.877853e-01 8.090170e-01
    outer loop
      vertex   2.000000e+01 1.613217e+00 1.104040e+01
      vertex   2.625000e+01 1.613217e+00 1.104040e+01
      vertex   2.000000e+01 1.850000e+00 1.121244e+01
    endloop
  endfacet
  facet normal 0.000000e+00 -5.877853e-01 8.090170e-01
    outer loop
      vertex   2.000000e+01 1.850000e+00 1.121244e+01
      vertex   2.625000e+01 1.613217e+00 1.104040e+01
      vertex   2.625000e+01 1.850000e+00 1.121244e+01
    endloop
  endfacet
  facet normal 0.000000e+00 -4.067366e-01 9.135455e-01
    outer loop
      vertex   2.000000e+01 1.850000e+00 1.121244e+01
      vertex   2.625000e+01 1.850000e+00 1.121244e+01
      vertex   2.000000e+01 2.117376e+00 1.133148e+01
    endloop
  endfacet
  facet normal 0.000000e+00 -4.067366e-01 9.135455e-01
    outer loop
      vertex   2.000000e+01 2.117376e+00 1.133148e+01
      vertex   2.625000e+01 1.850000e+00 1.121244e+01
      vertex   2.625000e+01 2.117376e+00 1.133148e+01
    endloop
  endfacet
  facet normal 0.000000e+00 -2.079117e-01 9.781476e-01
    outer loop
      vertex   2.000000e+01 2.117376e+00 1.133148e+01
      vertex   2.625000e+01 2.117376e+00 1.133148e+01
      vertex   2.000000e+01 2.403660e+00 1.139233e+01
    endloop
  endfacet
  facet normal 0.000000e+00 -2.079117e-01 9.781476e-01
    outer loop
      vertex   2.000000e+01 2.403660e+00 1.139233e+01
      vertex   2.625000e+01 2.117376e+00 1.133148e+01
      vertex   2.625000e+01 2.403660e+00 1.139233e+01
    endloop
  endfacet
  facet normal 0.000000e+00 0.000000e+00 1.000000e+00
    outer loop
      vertex   2.000000e+01 2.403660e+00 1.139233e+01
      vertex   2.625000e+01 2.403660e+00 1.139233e+01
      vertex   2.000000e+01 2.696340e+00 1.139233e+01
    endloop
  endfacet
  facet normal -0.000000e+00 0.000000e+00 1.000000e+00
    outer loop
      vertex   2.000000e+01 2.696340e+00 1.139233e+01
      vertex   2.625000e+01 2.403660e+00 1.139233e+01
      vertex   2.625000e+01 2.696340e+00 1.139233e+01
    endloop
  endfacet
  facet normal -0.000000e+00 2.079117e-01 9.781476e-01
    outer loop
      vertex   2.000000e+01 2.696340e+00 1.139233e+01
      vertex   2.625000e+01 2.696340e+00 1.139233e+01
      vertex   2.000000e+01 2.982624e+00 1.133148e+01
    endloop
  endfacet
  facet normal -0.000000e+00 2.079117e-01 9.781476e-01
    outer loop
      vertex   2.000000e+01 2.982624e+00 1.133148e+01
      vertex   2.625000e+01 2.696340e+00 1.139233e+01
      vertex   2.625000e+01 2.982624e+00 1.133148e+01
    endloop
  endfacet
  facet normal -0.000000e+00 4.067366e-01 9.135455e-01
    outer loop
      vertex   2.000000e+01 2.982624e+00 1.133148e+01
      vertex   2.625000e+01 2.982624e+00 1.133148e+01
      vertex   2.000000e+01 3.250000e+00 1.121244e+01
    endloop
  endfacet
  facet normal -0.000000e+00 4.067366e-01 9.135455e-01
    outer loop
      vertex   2.000000e+01 3.250000e+00 1.121244e+01
      vertex   2.625000e+01 2.982624e+00 1.133148e+01
      vertex   2.625000e+01 3.250000e+00 1.121244e+01
    endloop
  endfacet
  facet normal -0.000000e+00 5.877853e-01 8.090170e-01
    outer loop
      vertex   2.000000e+01 3.250000e+00 1.121244e+01
      vertex   2.625000e+01 3.250000e+00 1.121244e+01
      vertex   2.000000e+01 3.486783e+00 1.104040e+01
    endloop
  endfacet
  facet normal -0.000000e+00 5.877853e-01 8.090170e-01
    outer loop
      vertex   2.000000e+01 3.486783e+00 1.104040e+01
      vertex   2.625000e+01 3.250000e+00 1.121244e+01
      vertex   2.625000e+01 3.486783e+00 1.104040e+01
    endloop
  endfacet
  facet normal -0.000000e+00 7.431448e-01 6.691306e-01
    outer loop
      vertex   2.000000e+01 3.486783e+00 1.104040e+01
      vertex   2.625000e+01 3.486783e+00 1.104040e+01
      vertex   2.000000e+01 3.682624e+00 1.082290e+01
    endloop
  endfacet
  facet normal 5.280362e-17 7.431448e-01 6.691306e-01
    outer loop
      vertex   2.000000e+01 3.682624e+00 1.082290e+01
      vertex   2.625000e+01 3.486783e+00 1.104040e+01
      vertex   2.625000e+01 3.682624e+00 1.082290e+01
    endloop
  endfacet
  facet normal 6.153481e-17 8.660254e-01 5.000000e-01
    outer loop
      vertex   2.000000e+01 3.682624e+00 1.082290e+01
      vertex   2.625000e+01 3.682624e+00 1.082290e+01
      vertex   2.000000e+01 3.828964e+00 1.056943e+01
    endloop
  endfacet
  facet normal -0.000000e+00 8.660254e-01 5.000000e-01
    outer loop
      vertex   2.000000e+01 3.828964e+00 1.056943e+01
      vertex   2.625000e+01 3.682624e+00 1.082290e+01
      vertex   2.625000e+01 3.828964e+00 1.056943e+01
    endloop
  endfacet
  facet normal -0.000000e+00 9.510565e-01 3.090170e-01
    outer loop
      vertex   2.000000e+01 3.828964e+00 1.056943e+01
      vertex   2.625000e+01 3.828964e+00 1.056943e+01
      vertex   2.000000e+01 3.919407e+00 1.029108e+01
    endloop
  endfacet
  facet normal -6.757663e-17 9.510565e-01 3.090170e-01
    outer loop
      vertex   2.000000e+01 3.919407e+00 1.029108e+01
      vertex   2.625000e+01 3.828964e+00 1.056943e+01
      vertex   2.625000e+01 3.919407e+00 1.029108e+01
    endloop
  endfacet
  facet normal -7.066503e-17 9.945219e-01 1.045285e-01
    outer loop
      vertex   2.000000e+01 3.919407e+00 1.029108e+01
      vertex   2.625000e+01 3.919407e+00 1.029108e+01
      vertex   2.000000e+01 3.950000e+00 1.000000e+01
    endloop
  endfacet
  facet normal -0.000000e+00 9.945219e-01 1.045285e-01
    outer loop
      vertex   2.000000e+01 3.950000e+00 1.000000e+01
      vertex   2.625000e+01 3.919407e+00 1.029108e+01
      vertex   2.625000e+01 3.950000e+00 1.000000e+01
    endloop
  endfacet
  facet normal 0.000000e+00 9.945219e-01 -1.045285e-01
    outer loop
      vertex   2.000000e+01 3.950000e+00 1.000000e+01
      vertex   2.625000e+01 3.950000e+00 1.000000e+01
      vertex   2.000000e+01 3.919407e+00 9.708924e+00
    endloop
  endfacet
  facet normal 0.000000e+00 9.945219e-01 -1.045285e-01
    outer loop
      vertex   2.000000e+01 3.919407e+00 9.708924e+00
      vertex   2.625000e+01 3.950000e+00 1.000000e+01
      vertex   2.625000e+01 3.919407e+00 9.708924e+00
    endloop
  endfacet
  facet normal 0.000000e+00 9.510565e-01 -3.090170e-01
    outer loop
      vertex   2.000000e+01 3.919407e+00 9.708924e+00
      vertex   2.625000e+01 3.919407e+00 9.708924e+00
      vertex   2.000000e+01 3.828964e+00 9.430569e+00
    endloop
  endfacet
  facet normal 0.000000e+00 9.510565e-01 -3.090170e-01
    outer loop
      vertex   2.000000e+01 3.828964e+00 9.430569e+00
      vertex   2.625000e+01 3.919407e+00 9.708924e+00
      vertex   2.625000e+01 3.828964e+00 9.430569e+00
    endloop
  endfacet
  facet normal 0.000000e+00 8.660254e-01 -5.000000e-01
    outer loop
      vertex   2.000000e+01 3.828964e+00 9.430569e+00
      vertex   2.625000e+01 3.828964e+00 9.430569e+00
      vertex   2.000000e+01 3.682624e+00 9.177101e+00
    endloop
  endfacet
  facet normal 0.000000e+00 8.660254e-01 -5.000000e-01
    outer loop
      vertex   2.000000e+01 3.682624e+00 9.177101e+00
      vertex   2.625000e+01 3.828964e+00 9.430569e+00
      vertex   2.625000e+01 3.682624e+00 9.177101e+00
    endloop
  endfacet
  facet normal 0.000000e+00 7.431448e-01 -6.691306e-01
    outer loop
      vertex   2.000000e+01 3.682624e+00 9.177101e+00
      vertex   2.625000e+01 3.682624e+00 9.177101e+00
      vertex   2.000000e+01 3.486783e+00 8.959597e+00
    endloop
  endfacet
  facet normal 0.000000e+00 7.431448e-01 -6.691306e-01
    outer loop
      vertex   2.000000e+01 3.486783e+00 8.959597e+00
      vertex   2.625000e+01 3.682624e+00 9.177101e+00
      vertex   2.625000e+01 3.486783e+00 8.959597e+00
    endloop
  endfacet
  facet normal 0.000000e+00 5.877853e-01 -8.090170e-01
    outer loop
      vertex   2.000000e+01 3.486783e+00 8.959597e+00
      vertex   2.625000e+01 3.486783e+00 8.959597e+00
      vertex   2.000000e+01 3.250000e+00 8.787564e+00
    endloop
  endfacet
  facet normal 0.000000e+00 5.877853e-01 -8.090170e-01
    outer loop
      vertex   2.000000e+01 3.250000e+00 8.787564e+00
      vertex   2.625000e+01 3.486783e+00 8.959597e+00
      vertex   2.625000e+01 3.250000e+00 8.787564e+00
    endloop
  endfacet
  facet normal 0.000000e+00 4.067366e-01 -9.135455e-01
    outer loop
      vertex   2.000000e+01 3.250000e+00 8.787564e+00
      vertex   2.625000e+01 3.250000e+00 8.787564e+00
      vertex   2.000000e+01 2.982624e+00 8.668521e+00
    endloop
  endfacet
  facet normal 0.000000e+00 4.067366e-01 -9.135455e-01
    outer loop
      vertex   2.000000e+01 2.982624e+00 8.668521e+00
      vertex   2.625000e+01 3.250000e+00 8.787564e+00
      vertex   2.625000e+01 2.982624e+00 8.668521e+00
    endloop
  endfacet
  facet normal 0.000000e+00 2.079117e-01 -9.781476e-01
    outer loop
      vertex   2.000000e+01 2.982624e+00 8.668521e+00
      vertex   2.625000e+01 2.982624e+00 8.668521e+00
      vertex   2.000000e+01 2.696340e+00 8.607669e+00
    endloop
  endfacet
  facet normal 0.000000e+00 2.079117e-01 -9.781476e-01
    outer loop
      vertex   2.000000e+01 2.696340e+00 8.607669e+00
      vertex   2.625000e+01 2.982624e+00 8.668521e+00
      vertex   2.625000e+01 2.696340e+00 8.607669e+00
    endloop
  endfacet
  facet normal 0.000000e+00 0.000000e+00 -1.000000e+00
    outer loop
      vertex   2.000000e+01 2.696340e+00 8.607669e+00
      vertex   2.625000e+01 2.696340e+00 8.607669e+00
      vertex   2.000000e+01 2.403660e+00 8.607669e+00
    endloop
  endfacet
  facet normal 0.000000e+00 0.000000e+00 -1.000000e+00
    outer loop
      vertex   2.000000e+01 2.403660e+00 8.607669e+00
      vertex   2.625000e+01 2.696340e+00 8.607669e+00
      vertex   2.625000e+01 2.403660e+00 8.607669e+00
    endloop
  endfacet
  facet normal 0.000000e+00 -2.079117e-01 -9.781476e-01
    outer loop
      vertex   2.000000e+01 2.403660e+00 8.607669e+00
      vertex   2.625000e+01 2.403660e+00 8.607669e+00
      vertex   2.000000e+01 2.117376e+00 8.668521e+00
    endloop
  endfacet
  facet normal 0.000000e+00 -2.079117e-01 -9.781476e-01
    outer loop
      vertex   2.000000e+01 2.117376e+00 8.668521e+00
      vertex   2.625000e+01 2.403660e+00 8.607669e+00
      vertex   2.625000e+01 2.117376e+00 8.668521e+00
    endloop
  endfacet
  facet normal 0.000000e+00 -4.067366e-01 -9.135455e-01
    outer loop
      vertex   2.000000e+01 2.117376e+00 8.668521e+00
      vertex   2.625000e+01 2.117376e+00 8.668521e+00
      vertex   2.000000e+01 1.850000e+00 8.787564e+00
    endloop
  endfacet
  facet normal 0.000000e+00 -4.067366e-01 -9.135455e-01
    outer loop
      vertex   2.000000e+01 1.850000e+00 8.787564e+00
      vertex   2.625000e+01 2.117376e+00 8.668521e+00
      vertex   2.625000e+01 1.850000e+00 8.787564e+00
    endloop
  endfacet
  facet normal 0.000000e+00 -5.877853e-01 -8.090170e-01
    outer loop
      vertex   2.000000e+01 1.850000e+00 8.787564e+00
      vertex   2.625000e+01 1.850000e+00 8.787564e+00
      vertex   2.000000e+01 1.613217e+00 8.959597e+00
    endloop
  endfacet
  facet normal 0.000000e+00 -5.877853e-01 -8.090170e-01
    outer loop
      vertex   2.000000e+01 1.613217e+00 8.959597e+00
      vertex   2.625000e+01 1.850000e+00 8.787564e+00
      vertex   2.625000e+01 1.613217e+00 8.959597e+00
    endloop
  endfacet
  facet normal 0.000000e+00 -7.431448e-01 -6.691306e-01
    outer loop
      vertex   2.000000e+01 1.613217e+00 8.959597e+00
      vertex   2.625000e+01 1.613217e+00 8.959597e+00
      vertex   2.000000e+01 1.417376e+00 9.177101e+00
    endloop
  endfacet
  facet normal 0.000000e+00 -7.431448e-01 -6.691306e-01
    outer loop
      vertex   2.000000e+01 1.417376e+00 9.177101e+00
      vertex   2.625000e+01 1.613217e+00 8.959597e+00
      vertex   2.625000e+01 1.417376e+00 9.177101e+00
    endloop
  endfacet
  facet normal 0.000000e+00 -8.660254e-01 -5.000000e-01
    outer loop
      vertex   2.000000e+01 1.417376e+00 9.177101e+00
      vertex   2.625000e+01 1.417376e+00 9.177101e+00
      vertex   2.000000e+01 1.271036e+00 9.430569e+00
    endloop
  endfacet
  facet normal 0.000000e+00 -8.660254e-01 -5.000000e-01
    outer loop
      vertex   2.000000e+01 1.271036e+00 9.430569e+00
      vertex   2.625000e+01 1.417376e+00 9.177101e+00
      vertex   2.625000e+01 1.271036e+00 9.430569e+00
    endloop
  endfacet
  facet normal 0.000000e+00 -9.510565e-01 -3.090170e-01
    outer loop
      vertex   2.000000e+01 1.271036e+00 9.430569e+00
      vertex   2.625000e+01 1.271036e+00 9.430569e+00
      vertex   2.000000e+01 1.180593e+00 9.708924e+00
    endloop
  endfacet
  facet normal 0.000000e+00 -9.510565e-01 -3.090170e-01
    outer loop
      vertex   2.000000e+01 1.180593e+00 9.708924e+00
      vertex   2.625000e+01 1.271036e+00 9.430569e+00
      vertex   2.625000e+01 1.180593e+00 9.708924e+00
    endloop
  endfacet
  facet normal -0.000000e+00 -9.945219e-01 -1.045285e-01
    outer loop
      vertex   3.875000e+01 1.150000e+00 1.000000e+01
      vertex   3.250000e+01 1.150000e+00 1.000000e+01
      vertex   3.875000e+01 1.180593e+00 9.708924e+00
    endloop
  endfacet
  facet normal -0.000000e+00 -9.945219e-01 -1.045285e-01
    outer loop
      vertex   3.875000e+01 1.180593e+00 9.708924e+00
      vertex   3.250000e+01 1.150000e+00 1.000000e+01
      vertex   3.250000e+01 1.180593e+00 9.708924e+00
    endloop
  endfacet
  facet normal -0.000000e+00 -9.510565e-01 -3.090170e-01
    outer loop
      vertex   3.875000e+01 1.180593e+00 9.708924e+00
      vertex   3.250000e+01 1.180593e+00 9.708924e+00
      vertex   3.875000e+01 1.271036e+00 9.430569e+00
    endloop
  endfacet
  facet normal -0.000000e+00 -9.510565e-01 -3.090170e-01
    outer loop
      vertex   3.875000e+01 1.271036e+00 9.430569e+00
      vertex   3.250000e+01 1.180593e+00 9.708924e+00
      vertex   3.250000e+01 1.271036e+00 9.430569e+00
    endloop
  endfacet
  facet normal -0.000000e+00 -8.660254e-01 -5.000000e-01
    outer loop
      vertex   3.875000e+01 1.271036e+00 9.430569e+00
      vertex   3.250000e+01 1.271036e+00 9.430569e+00
      vertex   3.875000e+01 1.417376e+00 9.177101e+00
    endloop
  endfacet
  facet normal -0.000000e+00 -8.660254e-01 -5.000000e-01
    outer loop
      vertex   3.875000e+01 1.417376e+00 9.177101e+00
      vertex   3.250000e+01 1.271036e+00 9.430569e+00
      vertex   3.250000e+01 1.417376e+00 9.177101e+00
    endloop
  endfacet
  facet normal -0.000000e+00 -7.431448e-01 -6.691306e-01
    outer loop
      vertex   3.875000e+01 1.417376e+00 9.177101e+00
      vertex   3.250000e+01 1.417376e+00 9.177101e+00
      vertex   3.875000e+01 1.613217e+00 8.959597e+00
    endloop
  endfacet
  facet normal -0.000000e+00 -7.431448e-01 -6.691306e-01
    outer loop
      vertex   3.875000e+01 1.613217e+00 8.959597e+00
      vertex   3.250000e+01 1.417376e+00 9.177101e+00
      vertex   3.250000e+01 1.613217e+00 8.959597e+00
    endloop
  endfacet
  facet normal -0.000000e+00 -5.877853e-01 -8.090170e-01
    outer loop
      vertex   3.875000e+01 1.613217e+00 8.959597e+00
      vertex   3.250000e+01 1.613217e+00 8.959597e+00
      vertex   3.875000e+01 1.850000e+00 8.787564e+00
    endloop
  endfacet
  facet normal 1.672895e-16 -5.877853e-01 -8.090170e-01
    outer loop
      vertex   3.875000e+01 1.850000e+00 8.787564e+00
      vertex   3.250000e+01 1.613217e+00 8.959597e+00
      vertex   3.250000e+01 1.850000e+00 8.787564e+00
    endloop
  endfacet
  facet normal 2.162947e-16 -4.067366e-01 -9.135455e-01
    outer loop
      vertex   3.875000e+01 1.850000e+00 8.787564e+00
      vertex   3.250000e+01 1.850000e+00 8.787564e+00
      vertex   3.875000e+01 2.117376e+00 8.668521e+00
    endloop
  endfacet
  facet normal -0.000000e+00 -4.067366e-01 -9.135455e-01
    outer loop
      vertex   3.875000e+01 2.117376e+00 8.668521e+00
      vertex   3.250000e+01 1.850000e+00 8.787564e+00
      vertex   3.250000e+01 2.117376e+00 8.668521e+00
    endloop
  endfacet
  facet normal -0.000000e+00 -2.079117e-01 -9.781476e-01
    outer loop
      vertex   3.875000e+01 2.117376e+00 8.668521e+00
      vertex   3.250000e+01 2.117376e+00 8.668521e+00
      vertex   3.875000e+01 2.403660e+00 8.607669e+00
    endloop
  endfacet
  facet normal -0.000000e+00 -2.079117e-01 -9.781476e-01
    outer loop
      vertex   3.875000e+01 2.403660e+00 8.607669e+00
      vertex   3.250000e+01 2.117376e+00 8.668521e+00
      vertex   3.250000e+01 2.403660e+00 8.607669e+00
    endloop
  endfacet
  facet normal 0.000000e+00 0.000000e+00 -1.000000e+00
    outer loop
      vertex   3.875000e+01 2.403660e+00 8.607669e+00
      vertex   3.250000e+01 2.403660e+00 8.607669e+00
      vertex   3.875000e+01 2.696340e+00 8.607669e+00
    endloop
  endfacet
  facet normal -0.000000e+00 0.000000e+00 -1.000000e+00
    outer loop
      vertex   3.875000e+01 2.696340e+00 8.607669e+00
      vertex   3.250000e+01 2.403660e+00 8.607669e+00
      vertex   3.250000e+01 2.696340e+00 8.607669e+00
    endloop
  endfacet
  facet normal 0.000000e+00 2.079117e-01 -9.781476e-01
    outer loop
      vertex   3.875000e+01 2.696340e+00 8.607669e+00
      vertex   3.250000e+01 2.696340e+00 8.607669e+00
      vertex   3.875000e+01 2.982624e+00 8.668521e+00
    endloop
  endfacet
  facet normal 0.000000e+00 2.079117e-01 -9.781476e-01
    outer loop
      vertex   3.875000e+01 2.982624e+00 8.668521e+00
      vertex   3.250000e+01 2.696340e+00 8.607669e+00
      vertex   3.250000e+01 2.982624e+00 8.668521e+00
    endloop
  endfacet
  facet normal 0.000000e+00 4.067366e-01 -9.135455e-01
    outer loop
      vertex   3.875000e+01 2.982624e+00 8.668521e+00
      vertex   3.250000e+01 2.982624e+00 8.668521e+00
      vertex   3.875000e+01 3.250000e+00 8.787564e+00
    endloop
  endfacet
  facet normal 2.890038e-17 4.067366e-01 -9.135455e-01
    outer loop
      vertex   3.875000e+01 3.250000e+00 8.787564e+00
      vertex   3.250000e+01 2.982624e+00 8.668521e+00
      vertex   3.250000e+01 3.250000e+00 8.787564e+00
    endloop
  endfacet
  facet normal 4.176465e-17 5.877853e-01 -8.090170e-01
    outer loop
      vertex   3.875000e+01 3.250000e+00 8.787564e+00
      vertex   3.250000e+01 3.250000e+00 8.787564e+00
      vertex   3.875000e+01 3.486783e+00 8.959597e+00
    endloop
  endfacet
  facet normal 0.000000e+00 5.877853e-01 -8.090170e-01
    outer loop
      vertex   3.875000e+01 3.486783e+00 8.959597e+00
      vertex   3.250000e+01 3.250000e+00 8.787564e+00
      vertex   3.250000e+01 3.486783e+00 8.959597e+00
    endloop
  endfacet
  facet normal 0.000000e+00 7.431448e-01 -6.691306e-01
    outer loop
      vertex   3.875000e+01 3.486783e+00 8.959597e+00
      vertex   3.250000e+01 3.486783e+00 8.959597e+00
      vertex   3.875000e+01 3.682624e+00 9.177101e+00
    endloop
  endfacet
  facet normal 0.000000e+00 7.431448e-01 -6.691306e-01
    outer loop
      vertex   3.875000e+01 3.682624e+00 9.177101e+00
      vertex   3.250000e+01 3.486783e+00 8.959597e+00
      vertex   3.250000e+01 3.682624e+00 9.177101e+00
    endloop
  endfacet
  facet normal 0.000000e+00 8.660254e-01 -5.000000e-01
    outer loop
      vertex   3.875000e+01 3.682624e+00 9.177101e+00
      vertex   3.250000e+01 3.682624e+00 9.177101e+00
      vertex   3.875000e+01 3.828964e+00 9.430569e+00
    endloop
  endfacet
  facet normal 0.000000e+00 8.660254e-01 -5.000000e-01
    outer loop
      vertex   3.875000e+01 3.828964e+00 9.430569e+00
      vertex   3.250000e+01 3.682624e+00 9.177101e+00
      vertex   3.250000e+01 3.828964e+00 9.430569e+00
    endloop
  endfacet
  facet normal 0.000000e+00 9.510565e-01 -3.090170e-01
    outer loop
      vertex   3.875000e+01 3.828964e+00 9.430569e+00
      vertex   3.250000e+01 3.828964e+00 9.430569e+00
      vertex   3.875000e+01 3.919407e+00 9.708924e+00
    endloop
  endfacet
  facet normal 6.757663e-17 9.510565e-01 -3.090170e-01
    outer loop
      vertex   3.875000e+01 3.919407e+00 9.708924e+00
      vertex   3.250000e+01 3.828964e+00 9.430569e+00
      vertex   3.250000e+01 3.919407e+00 9.708924e+00
    endloop
  endfacet
  facet normal 7.066503e-17 9.945219e-01 -1.045285e-01
    outer loop
      vertex   3.875000e+01 3.919407e+00 9.708924e+00
      vertex   3.250000e+01 3.919407e+00 9.708924e+00
      vertex   3.875000e+01 3.950000e+00 1.000000e+01
    endloop
  endfacet
  facet normal 0.000000e+00 9.945219e-01 -1.045285e-01
    outer loop
      vertex   3.875000e+01 3.950000e+00 1.000000e+01
      vertex   3.250000e+01 3.919407e+00 9.708924e+00
      vertex   3.250000e+01 3.950000e+00 1.000000e+01
    endloop
  endfacet
  facet normal 0.000000e+00 9.945219e-01 1.045285e-01
    outer loop
      vertex   3.875000e+01 3.950000e+00 1.000000e+01
      vertex   3.250000e+01 3.950000e+00 1.000000e+01
      vertex   3.875000e+01 3.919407e+00 1.029108e+01
    endloop
  endfacet
  facet normal 0.000000e+00 9.945219e-01 1.045285e-01
    outer loop
      vertex   3.875000e+01 3.919407e+00 1.029108e+01
      vertex   3.250000e+01 3.950000e+00 1.000000e+01
      vertex   3.250000e+01 3.919407e+00 1.029108e+01
    endloop
  endfacet
  facet normal 0.000000e+00 9.510565e-01 3.090170e-01
    outer loop
      vertex   3.875000e+01 3.919407e+00 1.029108e+01
      vertex   3.250000e+01 3.919407e+00 1.029108e+01
      vertex   3.875000e+01 3.828964e+00 1.056943e+01
    endloop
  endfacet
  facet normal 0.000000e+00 9.510565e-01 3.090170e-01
    outer loop
      vertex   3.875000e+01 3.828964e+00 1.056943e+01
      vertex   3.250000e+01 3.919407e+00 1.029108e+01
      vertex   3.250000e+01 3.828964e+00 1.056943e+01
    endloop
  endfacet
  facet normal 0.000000e+00 8.660254e-01 5.000000e-01
    outer loop
      vertex   3.875000e+01 3.828964e+00 1.056943e+01
      vertex   3.250000e+01 3.828964e+00 1.056943e+01
      vertex   3.875000e+01 3.682624e+00 1.082290e+01
    endloop
  endfacet
  facet normal 0.000000e+00 8.660254e-01 5.000000e-01
    outer loop
      vertex   3.875000e+01 3.682624e+00 1.082290e+01
      vertex   3.250000e+01 3.828964e+00 1.056943e+01
      vertex   3.250000e+01 3.682624e+00 1.082290e+01
    endloop
  endfacet
  facet normal 0.000000e+00 7.431448e-01 6.691306e-01
    outer loop
      vertex   3.875000e+01 3.682624e+00 1.082290e+01
      vertex   3.250000e+01 3.682624e+00 1.082290e+01
      vertex   3.875000e+01 3.486783e+00 1.104040e+01
    endloop
  endfacet
  facet normal 0.000000e+00 7.431448e-01 6.691306e-01
    outer loop
      vertex   3.875000e+01 3.486783e+00 1.104040e+01
      vertex   3.250000e+01 3.682624e+00 1.082290e+01
      vertex   3.250000e+01 3.486783e+00 1.104040e+01
    endloop
  endfacet
  facet normal 0.000000e+00 5.877853e-01 8.090170e-01
    outer loop
      vertex   3.875000e+01 3.486783e+00 1.104040e+01
      vertex   3.250000e+01 3.486783e+00 1.104040e+01
      vertex   3.875000e+01 3.250000e+00 1.121244e+01
    endloop
  endfacet
  facet normal 0.000000e+00 5.877853e-01 8.090170e-01
    outer loop
      vertex   3.875000e+01 3.250000e+00 1.121244e+01
      vertex   3.250000e+01 3.486783e+00 1.104040e+01
      vertex   3.250000e+01 3.250000e+00 1.121244e+01
    endloop
  endfacet
  facet normal 0.000000e+00 4.067366e-01 9.135455e-01
    outer loop
      vertex   3.875000e+01 3.250000e+00 1.121244e+01
      vertex   3.250000e+01 3.250000e+00 1.121244e+01
      vertex   3.875000e+01 2.982624e+00 1.133148e+01
    endloop
  endfacet
  facet normal 0.000000e+00 4.067366e-01 9.135455e-01
    outer loop
      vertex   3.875000e+01 2.982624e+00 1.133148e+01
      vertex   3.250000e+01 3.250000e+00 1.121244e+01
      vertex   3.250000e+01 2.982624e+00 1.133148e+01
    endloop
  endfacet
  facet normal 0.000000e+00 2.079117e-01 9.781476e-01
    outer loop
      vertex   3.875000e+01 2.982624e+00 1.133148e+01
      vertex   3.250000e+01 2.982624e+00 1.133148e+01
      vertex   3.875000e+01 2.696340e+00 1.139233e+01
    endloop
  endfacet
  facet normal 0.000000e+00 2.079117e-01 9.781476e-01
    outer loop
      vertex   3.875000e+01 2.696340e+00 1.139233e+01
      vertex   3.250000e+01 2.982624e+00 1.133148e+01
      vertex   3.250000e+01 2.696340e+00 1.139233e+01
    endloop
  endfacet
  facet normal 0.000000e+00 0.000000e+00 1.000000e+00
    outer loop
      vertex   3.875000e+01 2.696340e+00 1.139233e+01
      vertex   3.250000e+01 2.696340e+00 1.139233e+01
      vertex   3.875000e+01 2.403660e+00 1.139233e+01
    endloop
  endfacet
  facet normal 0.000000e+00 0.000000e+00 1.000000e+00
    outer loop
      vertex   3.875000e+01 2.403660e+00 1.139233e+01
      vertex   3.250000e+01 2.696340e+00 1.139233e+01
      vertex   3.250000e+01 2.403660e+00 1.139233e+01
    endloop
  endfacet
  facet normal 1.477301e-17 -2.079117e-01 9.781476e-01
    outer loop
      vertex   3.875000e+01 2.403660e+00 1.139233e+01
      vertex   3.250000e+01 2.403660e+00 1.139233e+01
      vertex   3.875000e+01 2.117376e+00 1.133148e+01
    endloop
  endfacet
  facet normal 0.000000e+00 -2.079117e-01 9.781476e-01
    outer loop
      vertex   3.875000e+01 2.117376e+00 1.133148e+01
      vertex   3.250000e+01 2.403660e+00 1.139233e+01
      vertex   3.250000e+01 2.117376e+00 1.133148e+01
    endloop
  endfacet
  facet normal 0.000000e+00 -4.067366e-01 9.135455e-01
    outer loop
      vertex   3.875000e+01 2.117376e+00 1.133148e+01
      vertex   3.250000e+01 2.117376e+00 1.133148e+01
      vertex   3.875000e+01 1.850000e+00 1.121244e+01
    endloop
  endfacet
  facet normal 0.000000e+00 -4.067366e-01 9.135455e-01
    outer loop
      vertex   3.875000e+01 1.850000e+00 1.121244e+01
      vertex   3.250000e+01 2.117376e+00 1.133148e+01
      vertex   3.250000e+01 1.850000e+00 1.121244e+01
    endloop
  endfacet
  facet normal 0.000000e+00 -5.877853e-01 8.090170e-01
    outer loop
      vertex   3.875000e+01 1.850000e+00 1.121244e+01
      vertex   3.250000e+01 1.850000e+00 1.121244e+01
      vertex   3.875000e+01 1.613217e+00 1.104040e+01
    endloop
  endfacet
  facet normal 0.000000e+00 -5.877853e-01 8.090170e-01
    outer loop
      vertex   3.875000e+01 1.613217e+00 1.104040e+01
      vertex   3.250000e+01 1.850000e+00 1.121244e+01
      vertex   3.250000e+01 1.613217e+00 1.104040e+01
    endloop
  endfacet
  facet normal 0.000000e+00 -7.431448e-01 6.691306e-01
    outer loop
      vertex   3.875000e+01 1.613217e+00 1.104040e+01
      vertex   3.250000e+01 1.613217e+00 1.104040e+01
      vertex   3.875000e+01 1.417376e+00 1.082290e+01
    endloop
  endfacet
  facet normal 0.000000e+00 -7.431448e-01 6.691306e-01
    outer loop
      vertex   3.875000e+01 1.417376e+00 1.082290e+01
      vertex   3.250000e+01 1.613217e+00 1.104040e+01
      vertex   3.250000e+01 1.417376e+00 1.082290e+01
    endloop
  endfacet
  facet normal 0.000000e+00 -8.660254e-01 5.000000e-01
    outer loop
      vertex   3.875000e+01 1.417376e+00 1.082290e+01
      vertex   3.250000e+01 1.417376e+00 1.082290e+01
      vertex   3.875000e+01 1.271036e+00 1.056943e+01
    endloop
  endfacet
  facet normal 0.000000e+00 -8.660254e-01 5.000000e-01
    outer loop
      vertex   3.875000e+01 1.271036e+00 1.056943e+01
      vertex   3.250000e+01 1.417376e+00 1.082290e+01
      vertex   3.250000e+01 1.271036e+00 1.056943e+01
    endloop
  endfacet
  facet normal 0.000000e+00 -9.510565e-01 3.090170e-01
    outer loop
      vertex   3.875000e+01 1.271036e+00 1.056943e+01
      vertex   3.250000e+01 1.271036e+00 1.056943e+01
      vertex   3.875000e+01 1.180593e+00 1.029108e+01
    endloop
  endfacet
  facet normal 0.000000e+00 -9.510565e-01 3.090170e-01
    outer loop
      vertex   3.875000e+01 1.180593e+00 1.029108e+01
      vertex   3.250000e+01 1.271036e+00 1.056943e+01
      vertex   3.250000e+01 1.180593e+00 1.029108e+01
    endloop
  endfacet
  facet normal 0.000000e+00 -9.945219e-01 1.045285e-01
    outer loop
      vertex   3.875000e+01 1.180593e+00 1.029108e+01
      vertex   3.250000e+01 1.180593e+00 1.029108e+01
      vertex   3.875000e+01 1.150000e+00 1.000000e+01
    endloop
  endfacet
  facet normal 0.000000e+00 -9.945219e-01 1.045285e-01
    outer loop
      vertex   3.875000e+01 1.150000e+00 1.000000e+01
      vertex   3.250000e+01 1.180593e+00 1.029108e+01
      vertex   3.250000e+01 1.150000e+00 1.000000e+01
    endloop
  endfacet
  facet normal -0.000000e+00 -9.945219e-01 -1.045285e-01
    outer loop
      vertex   3.250000e+01 1.150000e+00 1.000000e+01
      vertex   2.625000e+01 1.150000e+00 1.000000e+01
      vertex   3.250000e+01 1.180593e+00 9.708924e+00
    endloop
  endfacet
  facet normal -5.623739e-18 -9.945219e-01 -1.045285e-01
    outer loop
      vertex   3.250000e+01 1.180593e+00 9.708924e+00
      vertex   2.625000e+01 1.150000e+00 1.000000e+01
      vertex   2.625000e+01 1.180593e+00 9.708924e+00
    endloop
  endfacet
  facet normal 5.403960e-17 -9.510565e-01 -3.090170e-01
    outer loop
      vertex   3.250000e+01 1.180593e+00 9.708924e+00
      vertex   2.625000e+01 1.180593e+00 9.708924e+00
      vertex   3.250000e+01 1.271036e+00 9.430569e+00
    endloop
  endfacet
  facet normal -3.378831e-17 -9.510565e-01 -3.090170e-01
    outer loop
      vertex   3.250000e+01 1.271036e+00 9.430569e+00
      vertex   2.625000e+01 1.180593e+00 9.708924e+00
      vertex   2.625000e+01 1.271036e+00 9.430569e+00
    endloop
  endfacet
  facet normal -3.076740e-17 -8.660254e-01 -5.000000e-01
    outer loop
      vertex   3.250000e+01 1.271036e+00 9.430569e+00
      vertex   2.625000e+01 1.271036e+00 9.430569e+00
      vertex   3.250000e+01 1.417376e+00 9.177101e+00
    endloop
  endfacet
  facet normal -0.000000e+00 -8.660254e-01 -5.000000e-01
    outer loop
      vertex   3.250000e+01 1.417376e+00 9.177101e+00
      vertex   2.625000e+01 1.271036e+00 9.430569e+00
      vertex   2.625000e+01 1.417376e+00 9.177101e+00
    endloop
  endfacet
  facet normal -0.000000e+00 -7.431448e-01 -6.691306e-01
    outer loop
      vertex   3.250000e+01 1.417376e+00 9.177101e+00
      vertex   2.625000e+01 1.417376e+00 9.177101e+00
      vertex   3.250000e+01 1.613217e+00 8.959597e+00
    endloop
  endfacet
  facet normal -2.640181e-17 -7.431448e-01 -6.691306e-01
    outer loop
      vertex   3.250000e+01 1.613217e+00 8.959597e+00
      vertex   2.625000e+01 1.417376e+00 9.177101e+00
      vertex   2.625000e+01 1.613217e+00 8.959597e+00
    endloop
  endfacet
  facet normal -2.088233e-17 -5.877853e-01 -8.090170e-01
    outer loop
      vertex   3.250000e+01 1.613217e+00 8.959597e+00
      vertex   2.625000e+01 1.613217e+00 8.959597e+00
      vertex   3.250000e+01 1.850000e+00 8.787564e+00
    endloop
  endfacet
  facet normal -4.176465e-17 -5.877853e-01 -8.090170e-01
    outer loop
      vertex   3.250000e+01 1.850000e+00 8.787564e+00
      vertex   2.625000e+01 1.613217e+00 8.959597e+00
      vertex   2.625000e+01 1.850000e+00 8.787564e+00
    endloop
  endfacet
  facet normal -2.890038e-17 -4.067366e-01 -9.135455e-01
    outer loop
      vertex   3.250000e+01 1.850000e+00 8.787564e+00
      vertex   2.625000e+01 1.850000e+00 8.787564e+00
      vertex   3.250000e+01 2.117376e+00 8.668521e+00
    endloop
  endfacet
  facet normal -0.000000e+00 -4.067366e-01 -9.135455e-01
    outer loop
      vertex   3.250000e+01 2.117376e+00 8.668521e+00
      vertex   2.625000e+01 1.850000e+00 8.787564e+00
      vertex   2.625000e+01 2.117376e+00 8.668521e+00
    endloop
  endfacet
  facet normal -0.000000e+00 -2.079117e-01 -9.781476e-01
    outer loop
      vertex   3.250000e+01 2.117376e+00 8.668521e+00
      vertex   2.625000e+01 2.117376e+00 8.668521e+00
      vertex   3.250000e+01 2.403660e+00 8.607669e+00
    endloop
  endfacet
  facet normal -1.477301e-17 -2.079117e-01 -9.781476e-01
    outer loop
      vertex   3.250000e+01 2.403660e+00 8.607669e+00
      vertex   2.625000e+01 2.117376e+00 8.668521e+00
      vertex   2.625000e+01 2.403660e+00 8.607669e+00
    endloop
  endfacet
  facet normal 0.000000e+00 0.000000e+00 -1.000000e+00
    outer loop
      vertex   3.250000e+01 2.403660e+00 8.607669e+00
      vertex   2.625000e+01 2.403660e+00 8.607669e+00
      vertex   3.250000e+01 2.696340e+00 8.607669e+00
    endloop
  endfacet
  facet normal -0.000000e+00 0.000000e+00 -1.000000e+00
    outer loop
      vertex   3.250000e+01 2.696340e+00 8.607669e+00
      vertex   2.625000e+01 2.403660e+00 8.607669e+00
      vertex   2.625000e+01 2.696340e+00 8.607669e+00
    endloop
  endfacet
  facet normal 2.954603e-17 2.079117e-01 -9.781476e-01
    outer loop
      vertex   3.250000e+01 2.696340e+00 8.607669e+00
      vertex   2.625000e+01 2.696340e+00 8.607669e+00
      vertex   3.250000e+01 2.982624e+00 8.668521e+00
    endloop
  endfacet
  facet normal 0.000000e+00 2.079117e-01 -9.781476e-01
    outer loop
      vertex   3.250000e+01 2.982624e+00 8.668521e+00
      vertex   2.625000e+01 2.696340e+00 8.607669e+00
      vertex   2.625000e+01 2.982624e+00 8.668521e+00
    endloop
  endfacet
  facet normal 0.000000e+00 4.067366e-01 -9.135455e-01
    outer loop
      vertex   3.250000e+01 2.982624e+00 8.668521e+00
      vertex   2.625000e+01 2.982624e+00 8.668521e+00
      vertex   3.250000e+01 3.250000e+00 8.787564e+00
    endloop
  endfacet
  facet normal 0.000000e+00 4.067366e-01 -9.135455e-01
    outer loop
      vertex   3.250000e+01 3.250000e+00 8.787564e+00
      vertex   2.625000e+01 2.982624e+00 8.668521e+00
      vertex   2.625000e+01 3.250000e+00 8.787564e+00
    endloop
  endfacet
  facet normal 0.000000e+00 5.877853e-01 -8.090170e-01
    outer loop
      vertex   3.250000e+01 3.250000e+00 8.787564e+00
      vertex   2.625000e+01 3.250000e+00 8.787564e+00
      vertex   3.250000e+01 3.486783e+00 8.959597e+00
    endloop
  endfacet
  facet normal 0.000000e+00 5.877853e-01 -8.090170e-01
    outer loop
      vertex   3.250000e+01 3.486783e+00 8.959597e+00
      vertex   2.625000e+01 3.250000e+00 8.787564e+00
      vertex   2.625000e+01 3.486783e+00 8.959597e+00
    endloop
  endfacet
  facet normal 0.000000e+00 7.431448e-01 -6.691306e-01
    outer loop
      vertex   3.250000e+01 3.486783e+00 8.959597e+00
      vertex   2.625000e+01 3.486783e+00 8.959597e+00
      vertex   3.250000e+01 3.682624e+00 9.177101e+00
    endloop
  endfacet
  facet normal 0.000000e+00 7.431448e-01 -6.691306e-01
    outer loop
      vertex   3.250000e+01 3.682624e+00 9.177101e+00
      vertex   2.625000e+01 3.486783e+00 8.959597e+00
      vertex   2.625000e+01 3.682624e+00 9.177101e+00
    endloop
  endfacet
  facet normal 0.000000e+00 8.660254e-01 -5.000000e-01
    outer loop
      vertex   3.250000e+01 3.682624e+00 9.177101e+00
      vertex   2.625000e+01 3.682624e+00 9.177101e+00
      vertex   3.250000e+01 3.828964e+00 9.430569e+00
    endloop
  endfacet
  facet normal 6.153481e-17 8.660254e-01 -5.000000e-01
    outer loop
      vertex   3.250000e+01 3.828964e+00 9.430569e+00
      vertex   2.625000e+01 3.682624e+00 9.177101e+00
      vertex   2.625000e+01 3.828964e+00 9.430569e+00
    endloop
  endfacet
  facet normal 6.757663e-17 9.510565e-01 -3.090170e-01
    outer loop
      vertex   3.250000e+01 3.828964e+00 9.430569e+00
      vertex   2.625000e+01 3.828964e+00 9.430569e+00
      vertex   3.250000e+01 3.919407e+00 9.708924e+00
    endloop
  endfacet
  facet normal -8.782791e-17 9.510565e-01 -3.090170e-01
    outer loop
      vertex   3.250000e+01 3.919407e+00 9.708924e+00
      vertex   2.625000e+01 3.828964e+00 9.430569e+00
      vertex   2.625000e+01 3.919407e+00 9.708924e+00
    endloop
  endfacet
  facet normal -2.970878e-17 9.945219e-01 -1.045285e-01
    outer loop
      vertex   3.250000e+01 3.919407e+00 9.708924e+00
      vertex   2.625000e+01 3.919407e+00 9.708924e+00
      vertex   3.250000e+01 3.950000e+00 1.000000e+01
    endloop
  endfacet
  facet normal 0.000000e+00 9.945219e-01 -1.045285e-01
    outer loop
      vertex   3.250000e+01 3.950000e+00 1.000000e+01
      vertex   2.625000e+01 3.919407e+00 9.708924e+00
      vertex   2.625000e+01 3.950000e+00 1.000000e+01
    endloop
  endfacet
  facet normal 0.000000e+00 9.945219e-01 1.045285e-01
    outer loop
      vertex   3.250000e+01 3.950000e+00 1.000000e+01
      vertex   2.625000e+01 3.950000e+00 1.000000e+01
      vertex   3.250000e+01 3.919407e+00 1.029108e+01
    endloop
  endfacet
  facet normal 0.000000e+00 9.945219e-01 1.045285e-01
    outer loop
      vertex   3.250000e+01 3.919407e+00 1.029108e+01
      vertex   2.625000e+01 3.950000e+00 1.000000e+01
      vertex   2.625000e+01 3.919407e+00 1.029108e+01
    endloop
  endfacet
  facet normal 0.000000e+00 9.510565e-01 3.090170e-01
    outer loop
      vertex   3.250000e+01 3.919407e+00 1.029108e+01
      vertex   2.625000e+01 3.919407e+00 1.029108e+01
      vertex   3.250000e+01 3.828964e+00 1.056943e+01
    endloop
  endfacet
  facet normal 0.000000e+00 9.510565e-01 3.090170e-01
    outer loop
      vertex   3.250000e+01 3.828964e+00 1.056943e+01
      vertex   2.625000e+01 3.919407e+00 1.029108e+01
      vertex   2.625000e+01 3.828964e+00 1.056943e+01
    endloop
  endfacet
  facet normal 0.000000e+00 8.660254e-01 5.000000e-01
    outer loop
      vertex   3.250000e+01 3.828964e+00 1.056943e+01
      vertex   2.625000e+01 3.828964e+00 1.056943e+01
      vertex   3.250000e+01 3.682624e+00 1.082290e+01
    endloop
  endfacet
  facet normal 0.000000e+00 8.660254e-01 5.000000e-01
    outer loop
      vertex   3.250000e+01 3.682624e+00 1.082290e+01
      vertex   2.625000e+01 3.828964e+00 1.056943e+01
      vertex   2.625000e+01 3.682624e+00 1.082290e+01
    endloop
  endfacet
  facet normal 0.000000e+00 7.431448e-01 6.691306e-01
    outer loop
      vertex   3.250000e+01 3.682624e+00 1.082290e+01
      vertex   2.625000e+01 3.682624e+00 1.082290e+01
      vertex   3.250000e+01 3.486783e+00 1.104040e+01
    endloop
  endfacet
  facet normal 3.275531e-16 7.431448e-01 6.691306e-01
    outer loop
      vertex   3.250000e+01 3.486783e+00 1.104040e+01
      vertex   2.625000e+01 3.682624e+00 1.082290e+01
      vertex   2.625000e+01 3.486783e+00 1.104040e+01
    endloop
  endfacet
  facet normal 4.181083e-16 5.877853e-01 8.090170e-01
    outer loop
      vertex   3.250000e+01 3.486783e+00 1.104040e+01
      vertex   2.625000e+01 3.486783e+00 1.104040e+01
      vertex   3.250000e+01 3.250000e+00 1.121244e+01
    endloop
  endfacet
  facet normal -4.176465e-17 5.877853e-01 8.090170e-01
    outer loop
      vertex   3.250000e+01 3.250000e+00 1.121244e+01
      vertex   2.625000e+01 3.486783e+00 1.104040e+01
      vertex   2.625000e+01 3.250000e+00 1.121244e+01
    endloop
  endfacet
  facet normal -2.890038e-17 4.067366e-01 9.135455e-01
    outer loop
      vertex   3.250000e+01 3.250000e+00 1.121244e+01
      vertex   2.625000e+01 3.250000e+00 1.121244e+01
      vertex   3.250000e+01 2.982624e+00 1.133148e+01
    endloop
  endfacet
  facet normal 0.000000e+00 4.067366e-01 9.135455e-01
    outer loop
      vertex   3.250000e+01 2.982624e+00 1.133148e+01
      vertex   2.625000e+01 3.250000e+00 1.121244e+01
      vertex   2.625000e+01 2.982624e+00 1.133148e+01
    endloop
  endfacet
  facet normal 0.000000e+00 2.079117e-01 9.781476e-01
    outer loop
      vertex   3.250000e+01 2.982624e+00 1.133148e+01
      vertex   2.625000e+01 2.982624e+00 1.133148e+01
      vertex   3.250000e+01 2.696340e+00 1.139233e+01
    endloop
  endfacet
  facet normal -1.477301e-17 2.079117e-01 9.781476e-01
    outer loop
      vertex   3.250000e+01 2.696340e+00 1.139233e+01
      vertex   2.625000e+01 2.982624e+00 1.133148e+01
      vertex   2.625000e+01 2.696340e+00 1.139233e+01
    endloop
  endfacet
  facet normal 0.000000e+00 0.000000e+00 1.000000e+00
    outer loop
      vertex   3.250000e+01 2.696340e+00 1.139233e+01
      vertex   2.625000e+01 2.696340e+00 1.139233e+01
      vertex   3.250000e+01 2.403660e+00 1.139233e+01
    endloop
  endfacet
  facet normal 0.000000e+00 0.000000e+00 1.000000e+00
    outer loop
      vertex   3.250000e+01 2.403660e+00 1.139233e+01
      vertex   2.625000e+01 2.696340e+00 1.139233e+01
      vertex   2.625000e+01 2.403660e+00 1.139233e+01
    endloop
  endfacet
  facet normal 0.000000e+00 -2.079117e-01 9.781476e-01
    outer loop
      vertex   3.250000e+01 2.403660e+00 1.139233e+01
      vertex   2.625000e+01 2.403660e+00 1.139233e+01
      vertex   3.250000e+01 2.117376e+00 1.133148e+01
    endloop
  endfacet
  facet normal 0.000000e+00 -2.079117e-01 9.781476e-01
    outer loop
      vertex   3.250000e+01 2.117376e+00 1.133148e+01
      vertex   2.625000e+01 2.403660e+00 1.139233e+01
      vertex   2.625000e+01 2.117376e+00 1.133148e+01
    endloop
  endfacet
  facet normal 0.000000e+00 -4.067366e-01 9.135455e-01
    outer loop
      vertex   3.250000e+01 2.117376e+00 1.133148e+01
      vertex   2.625000e+01 2.117376e+00 1.133148e+01
      vertex   3.250000e+01 1.850000e+00 1.121244e+01
    endloop
  endfacet
  facet normal 4.335057e-17 -4.067366e-01 9.135455e-01
    outer loop
      vertex   3.250000e+01 1.850000e+00 1.121244e+01
      vertex   2.625000e+01 2.117376e+00 1.133148e+01
      vertex   2.625000e+01 1.850000e+00 1.121244e+01
    endloop
  endfacet
  facet normal 6.264698e-17 -5.877853e-01 8.090170e-01
    outer loop
      vertex   3.250000e+01 1.850000e+00 1.121244e+01
      vertex   2.625000e+01 1.850000e+00 1.121244e+01
      vertex   3.250000e+01 1.613217e+00 1.104040e+01
    endloop
  endfacet
  facet normal 2.088233e-17 -5.877853e-01 8.090170e-01
    outer loop
      vertex   3.250000e+01 1.613217e+00 1.104040e+01
      vertex   2.625000e+01 1.850000e+00 1.121244e+01
      vertex   2.625000e+01 1.613217e+00 1.104040e+01
    endloop
  endfacet
  facet normal 2.640181e-17 -7.431448e-01 6.691306e-01
    outer loop
      vertex   3.250000e+01 1.613217e+00 1.104040e+01
      vertex   2.625000e+01 1.613217e+00 1.104040e+01
      vertex   3.250000e+01 1.417376e+00 1.082290e+01
    endloop
  endfacet
  facet normal 0.000000e+00 -7.431448e-01 6.691306e-01
    outer loop
      vertex   3.250000e+01 1.417376e+00 1.082290e+01
      vertex   2.625000e+01 1.613217e+00 1.104040e+01
      vertex   2.625000e+01 1.417376e+00 1.082290e+01
    endloop
  endfacet
  facet normal 0.000000e+00 -8.660254e-01 5.000000e-01
    outer loop
      vertex   3.250000e+01 1.417376e+00 1.082290e+01
      vertex   2.625000e+01 1.417376e+00 1.082290e+01
      vertex   3.250000e+01 1.271036e+00 1.056943e+01
    endloop
  endfacet
  facet normal 0.000000e+00 -8.660254e-01 5.000000e-01
    outer loop
      vertex   3.250000e+01 1.271036e+00 1.056943e+01
      vertex   2.625000e+01 1.417376e+00 1.082290e+01
      vertex   2.625000e+01 1.271036e+00 1.056943e+01
    endloop
  endfacet
  facet normal 0.000000e+00 -9.510565e-01 3.090170e-01
    outer loop
      vertex   3.250000e+01 1.271036e+00 1.056943e+01
      vertex   2.625000e+01 1.271036e+00 1.056943e+01
      vertex   3.250000e+01 1.180593e+00 1.029108e+01
    endloop
  endfacet
  facet normal -5.403960e-17 -9.510565e-01 3.090170e-01
    outer loop
      vertex   3.250000e+01 1.180593e+00 1.029108e+01
      vertex   2.625000e+01 1.271036e+00 1.056943e+01
      vertex   2.625000e+01 1.180593e+00 1.029108e+01
    endloop
  endfacet
  facet normal 5.623739e-18 -9.945219e-01 1.045285e-01
    outer loop
      vertex   3.250000e+01 1.180593e+00 1.029108e+01
      vertex   2.625000e+01 1.180593e+00 1.029108e+01
      vertex   3.250000e+01 1.150000e+00 1.000000e+01
    endloop
  endfacet
  facet normal 0.000000e+00 -9.945219e-01 1.045285e-01
    outer loop
      vertex   3.250000e+01 1.150000e+00 1.000000e+01
      vertex   2.625000e+01 1.180593e+00 1.029108e+01
      vertex   2.625000e+01 1.150000e+00 1.000000e+01
    endloop
  endfacet
  facet normal 1.000000e+00 -0.000000e+00 -0.000000e+00
    outer loop
      vertex   4.500000e+01 1.180593e+00 9.708924e+00
      vertex   4.500000e+01 3.919407e+00 9.708924e+00
      vertex   4.500000e+01 1.150000e+00 1.000000e+01
    endloop
  endfacet
  facet normal 1.000000e+00 -0.000000e+00 0.000000e+00
    outer loop
      vertex   4.500000e+01 1.150000e+00 1.000000e+01
      vertex   4.500000e+01 3.919407e+00 9.708924e+00
      vertex   4.500000e+01 3.950000e+00 1.000000e+01
    endloop
  endfacet
  facet normal 1.000000e+00 0.000000e+00 0.000000e+00
    outer loop
      vertex   4.500000e+01 1.150000e+00 1.000000e+01
      vertex   4.500000e+01 3.950000e+00 1.000000e+01
      vertex   4.500000e+01 1.180593e+00 1.029108e+01
    endloop
  endfacet
  facet normal 1.000000e+00 0.000000e+00 0.000000e+00
    outer loop
      vertex   4.500000e+01 1.180593e+00 1.029108e+01
      vertex   4.500000e+01 3.950000e+00 1.000000e+01
      vertex   4.500000e+01 3.919407e+00 1.029108e+01
    endloop
  endfacet
  facet normal 1.000000e+00 -0.000000e+00 0.000000e+00
    outer loop
      vertex   4.500000e+01 1.180593e+00 1.029108e+01
      vertex   4.500000e+01 3.919407e+00 1.029108e+01
      vertex   4.500000e+01 1.271036e+00 1.056943e+01
    endloop
  endfacet
  facet normal 1.000000e+00 -0.000000e+00 0.000000e+00
    outer loop
      vertex   4.500000e+01 1.271036e+00 1.056943e+01
      vertex   4.500000e+01 3.919407e+00 1.029108e+01
      vertex   4.500000e+01 3.828964e+00 1.056943e+01
    endloop
  endfacet
  facet normal 1.000000e+00 0.000000e+00 0.000000e+00
    outer loop
      vertex   4.500000e+01 1.271036e+00 1.056943e+01
      vertex   4.500000e+01 3.828964e+00 1.056943e+01
      vertex   4.500000e+01 1.417376e+00 1.082290e+01
    endloop
  endfacet
  facet normal 1.000000e+00 -0.000000e+00 0.000000e+00
    outer loop
      vertex   4.500000e+01 1.417376e+00 1.082290e+01
      vertex   4.500000e+01 3.828964e+00 1.056943e+01
      vertex   4.500000e+01 3.682624e+00 1.082290e+01
    endloop
  endfacet
  facet normal 1.000000e+00 0.000000e+00 0.000000e+00
    outer loop
      vertex   4.500000e+01 1.417376e+00 1.082290e+01
      vertex   4.500000e+01 3.682624e+00 1.082290e+01
      vertex   4.500000e+01 1.613217e+00 1.104040e+01
    endloop
  endfacet
  facet normal 1.000000e+00 0.000000e+00 0.000000e+00
    outer loop
      vertex   4.500000e+01 1.613217e+00 1.104040e+01
      vertex   4.500000e+01 3.682624e+00 1.082290e+01
      vertex   4.500000e+01 3.486783e+00 1.104040e+01
    endloop
  endfacet
  facet normal 1.000000e+00 -0.000000e+00 0.000000e+00
    outer loop
      vertex   4.500000e+01 1.613217e+00 1.104040e+01
      vertex   4.500000e+01 3.486783e+00 1.104040e+01
      vertex   4.500000e+01 1.850000e+00 1.121244e+01
    endloop
  endfacet
  facet normal 1.000000e+00 -0.000000e+00 0.000000e+00
    outer loop
      vertex   4.500000e+01 1.850000e+00 1.121244e+01
      vertex   4.500000e+01 3.486783e+00 1.104040e+01
      vertex   4.500000e+01 3.250000e+00 1.121244e+01
    endloop
  endfacet
  facet normal 1.000000e+00 0.000000e+00 0.000000e+00
    outer loop
      vertex   4.500000e+01 1.850000e+00 1.121244e+01
      vertex   4.500000e+01 3.250000e+00 1.121244e+01
      vertex   4.500000e+01 2.117376e+00 1.133148e+01
    endloop
  endfacet
  facet normal 1.000000e+00 -0.000000e+00 0.000000e+00
    outer loop
      vertex   4.500000e+01 2.117376e+00 1.133148e+01
      vertex   4.500000e+01 3.250000e+00 1.121244e+01
      vertex   4.500000e+01 2.982624e+00 1.133148e+01
    endloop
  endfacet
  facet normal 1.000000e+00 0.000000e+00 0.000000e+00
    outer loop
      vertex   4.500000e+01 2.117376e+00 1.133148e+01
      vertex   4.500000e+01 2.982624e+00 1.133148e+01
      vertex   4.500000e+01 2.403660e+00 1.139233e+01
    endloop
  endfacet
  facet normal 1.000000e+00 -0.000000e+00 0.000000e+00
    outer loop
      vertex   4.500000e+01 2.403660e+00 1.139233e+01
      vertex   4.500000e+01 2.982624e+00 1.133148e+01
      vertex   4.500000e+01 2.696340e+00 1.139233e+01
    endloop
  endfacet
  facet normal 1.000000e+00 0.000000e+00 0.000000e+00
    outer loop
      vertex   4.500000e+01 3.919407e+00 9.708924e+00
      vertex   4.500000e+01 1.180593e+00 9.708924e+00
      vertex   4.500000e+01 3.828964e+00 9.430569e+00
    endloop
  endfacet
  facet normal 1.000000e+00 0.000000e+00 0.000000e+00
    outer loop
      vertex   4.500000e+01 3.828964e+00 9.430569e+00
      vertex   4.500000e+01 1.180593e+00 9.708924e+00
      vertex   4.500000e+01 1.271036e+00 9.430569e+00
    endloop
  endfacet
  facet normal 1.000000e+00 0.000000e+00 0.000000e+00
    outer loop
      vertex   4.500000e+01 3.828964e+00 9.430569e+00
      vertex   4.500000e+01 1.271036e+00 9.430569e+00
      vertex   4.500000e+01 3.682624e+00 9.177101e+00
    endloop
  endfacet
  facet normal 1.000000e+00 0.000000e+00 0.000000e+00
    outer loop
      vertex   4.500000e+01 3.682624e+00 9.177101e+00
      vertex   4.500000e+01 1.271036e+00 9.430569e+00
      vertex   4.500000e+01 1.417376e+00 9.177101e+00
    endloop
  endfacet
  facet normal 1.000000e+00 0.000000e+00 0.000000e+00
    outer loop
      vertex   4.500000e+01 3.682624e+00 9.177101e+00
      vertex   4.500000e+01 1.417376e+00 9.177101e+00
      vertex   4.500000e+01 3.486783e+00 8.959597e+00
    endloop
  endfacet
  facet normal 1.000000e+00 0.000000e+00 0.000000e+00
    outer loop
      vertex   4.500000e+01 3.486783e+00 8.959597e+00
      vertex   4.500000e+01 1.417376e+00 9.177101e+00
      vertex   4.500000e+01 1.613217e+00 8.959597e+00
    endloop
  endfacet
  facet normal 1.000000e+00 0.000000e+00 0.000000e+00
    outer loop
      vertex   4.500000e+01 3.486783e+00 8.959597e+00
      vertex   4.500000e+01 1.613217e+00 8.959597e+00
      vertex   4.500000e+01 3.250000e+00 8.787564e+00
    endloop
  endfacet
  facet normal 1.000000e+00 0.000000e+00 0.000000e+00
    outer loop
      vertex   4.500000e+01 3.250000e+00 8.787564e+00
      vertex   4.500000e+01 1.613217e+00 8.959597e+00
      vertex   4.500000e+01 1.850000e+00 8.787564e+00
    endloop
  endfacet
  facet normal 1.000000e+00 0.000000e+00 0.000000e+00
    outer loop
      vertex   4.500000e+01 3.250000e+00 8.787564e+00
      vertex   4.500000e+01 1.850000e+00 8.787564e+00
      vertex   4.500000e+01 2.982624e+00 8.668521e+00
    endloop
  endfacet
  facet normal 1.000000e+00 0.000000e+00 0.000000e+00
    outer loop
      vertex   4.500000e+01 2.982624e+00 8.668521e+00
      vertex   4.500000e+01 1.850000e+00 8.787564e+00
      vertex   4.500000e+01 2.117376e+00 8.668521e+00
    endloop
  endfacet
  facet normal 1.000000e+00 0.000000e+00 0.000000e+00
    outer loop
      vertex   4.500000e+01 2.982624e+00 8.668521e+00
      vertex   4.500000e+01 2.117376e+00 8.668521e+00
      vertex   4.500000e+01 2.696340e+00 8.607669e+00
    endloop
  endfacet
  facet normal 1.000000e+00 0.000000e+00 0.000000e+00
    outer loop
      vertex   4.500000e+01 2.696340e+00 8.607669e+00
      vertex   4.500000e+01 2.117376e+00 8.668521e+00
      vertex   4.500000e+01 2.403660e+00 8.607669e+00
    endloop
  endfacet
  facet normal -1.000000e+00 0.000000e+00 0.000000e+00
    outer loop
      vertex   1.800000e+01 4.100000e+00 0.000000e+00
      vertex   1.800000e+01 1.100000e+00 0.000000e+00
      vertex   1.800000e+01 4.100000e+00 2.000000e+01
    endloop
  endfacet
  facet normal -1.000000e+00 -0.000000e+00 0.000000e+00
    outer loop
      vertex   1.800000e+01 4.100000e+00 2.000000e+01
      vertex   1.800000e+01 1.100000e+00 0.000000e+00
      vertex   1.800000e+01 1.100000e+00 2.000000e+01
    endloop
  endfacet
  facet normal 0.000000e+00 -1.000000e+00 0.000000e+00
    outer loop
      vertex   0.000000e+00 4.100000e+00 0.000000e+00
      vertex   1.800000e+01 4.100000e+00 0.000000e+00
      vertex   0.000000e+00 4.100000e+00 2.000000e+01
    endloop
  endfacet
  facet normal 0.000000e+00 -1.000000e+00 0.000000e+00
    outer loop
      vertex   0.000000e+00 4.100000e+00 2.000000e+01
      vertex   1.800000e+01 4.100000e+00 0.000000e+00
      vertex   1.800000e+01 4.100000e+00 2.000000e+01
    endloop
  endfacet
  facet normal -1.000000e+00 0.000000e+00 0.000000e+00
    outer loop
      vertex   0.000000e+00 5.100000e+00 0.000000e+00
      vertex   0.000000e+00 4.100000e+00 0.000000e+00
      vertex   0.000000e+00 5.100000e+00 2.000000e+01
    endloop
  endfacet
  facet normal -1.000000e+00 -0.000000e+00 0.000000e+00
    outer loop
      vertex   0.000000e+00 5.100000e+00 2.000000e+01
      vertex   0.000000e+00 4.100000e+00 0.000000e+00
      vertex   0.000000e+00 4.100000e+00 2.000000e+01
    endloop
  endfacet
  facet normal 0.000000e+00 1.000000e+00 -0.000000e+00
    outer loop
      vertex   2.000000e+01 5.100000e+00 0.000000e+00
      vertex   0.000000e+00 5.100000e+00 0.000000e+00
      vertex   2.000000e+01 5.100000e+00 2.000000e+01
    endloop
  endfacet
  facet normal 0.000000e+00 1.000000e+00 0.000000e+00
    outer loop
      vertex   2.000000e+01 5.100000e+00 2.000000e+01
      vertex   0.000000e+00 5.100000e+00 0.000000e+00
      vertex   0.000000e+00 5.100000e+00 2.000000e+01
    endloop
  endfacet
  facet normal 1.000000e+00 0.000000e+00 0.000000e+00
    outer loop
      vertex   2.000000e+01 1.180593e+00 1.029108e+01
      vertex   2.000000e+01 0.000000e+00 2.000000e+01
      vertex   2.000000e+01 1.150000e+00 1.000000e+01
    endloop
  endfacet
  facet normal 1.000000e+00 0.000000e+00 0.000000e+00
    outer loop
      vertex   2.000000e+01 1.150000e+00 1.000000e+01
      vertex   2.000000e+01 0.000000e+00 2.000000e+01
      vertex   2.000000e+01 -1.232595e-31 0.000000e+00
    endloop
  endfacet
  facet normal 1.000000e+00 0.000000e+00 0.000000e+00
    outer loop
      vertex   2.000000e+01 1.150000e+00 1.000000e+01
      vertex   2.000000e+01 -1.232595e-31 0.000000e+00
      vertex   2.000000e+01 1.180593e+00 9.708924e+00
    endloop
  endfacet
  facet normal 1.000000e+00 0.000000e+00 0.000000e+00
    outer loop
      vertex   2.000000e+01 1.180593e+00 9.708924e+00
      vertex   2.000000e+01 -1.232595e-31 0.000000e+00
      vertex   2.000000e+01 1.271036e+00 9.430569e+00
    endloop
  endfacet
  facet normal 1.000000e+00 0.000000e+00 0.000000e+00
    outer loop
      vertex   2.000000e+01 1.271036e+00 9.430569e+00
      vertex   2.000000e+01 -1.232595e-31 0.000000e+00
      vertex   2.000000e+01 1.417376e+00 9.177101e+00
    endloop
  endfacet
  facet normal 1.000000e+00 0.000000e+00 0.000000e+00
    outer loop
      vertex   2.000000e+01 1.417376e+00 9.177101e+00
      vertex   2.000000e+01 -1.232595e-31 0.000000e+00
      vertex   2.000000e+01 1.613217e+00 8.959597e+00
    endloop
  endfacet
  facet normal 1.000000e+00 0.000000e+00 0.000000e+00
    outer loop
      vertex   2.000000e+01 1.613217e+00 8.959597e+00
      vertex   2.000000e+01 -1.232595e-31 0.000000e+00
      vertex   2.000000e+01 1.850000e+00 8.787564e+00
    endloop
  endfacet
  facet normal 1.000000e+00 0.000000e+00 0.000000e+00
    outer loop
      vertex   2.000000e+01 1.850000e+00 8.787564e+00
      vertex   2.000000e+01 -1.232595e-31 0.000000e+00
      vertex   2.000000e+01 2.117376e+00 8.668521e+00
    endloop
  endfacet
  facet normal 1.000000e+00 0.000000e+00 0.000000e+00
    outer loop
      vertex   2.000000e+01 2.117376e+00 8.668521e+00
      vertex   2.000000e+01 -1.232595e-31 0.000000e+00
      vertex   2.000000e+01 2.403660e+00 8.607669e+00
    endloop
  endfacet
  facet normal 1.000000e+00 0.000000e+00 0.000000e+00
    outer loop
      vertex   2.000000e+01 2.403660e+00 8.607669e+00
      vertex   2.000000e+01 -1.232595e-31 0.000000e+00
      vertex   2.000000e+01 5.100000e+00 0.000000e+00
    endloop
  endfacet
  facet normal 1.000000e+00 -0.000000e+00 0.000000e+00
    outer loop
      vertex   2.000000e+01 2.403660e+00 8.607669e+00
      vertex   2.000000e+01 5.100000e+00 0.000000e+00
      vertex   2.000000e+01 2.696340e+00 8.607669e+00
    endloop
  endfacet
  facet normal 1.000000e+00 -0.000000e+00 0.000000e+00
    outer loop
      vertex   2.000000e+01 2.696340e+00 8.607669e+00
      vertex   2.000000e+01 5.100000e+00 0.000000e+00
      vertex   2.000000e+01 2.982624e+00 8.668521e+00
    endloop
  endfacet
  facet normal 1.000000e+00 -0.000000e+00 0.000000e+00
    outer loop
      vertex   2.000000e+01 2.982624e+00 8.668521e+00
      vertex   2.000000e+01 5.100000e+00 0.000000e+00
      vertex   2.000000e+01 3.250000e+00 8.787564e+00
    endloop
  endfacet
  facet normal 1.000000e+00 -0.000000e+00 0.000000e+00
    outer loop
      vertex   2.000000e+01 3.250000e+00 8.787564e+00
      vertex   2.000000e+01 5.100000e+00 0.000000e+00
      vertex   2.000000e+01 3.486783e+00 8.959597e+00
    endloop
  endfacet
  facet normal 1.000000e+00 -0.000000e+00 0.000000e+00
    outer loop
      vertex   2.000000e+01 3.486783e+00 8.959597e+00
      vertex   2.000000e+01 5.100000e+00 0.000000e+00
      vertex   2.000000e+01 3.682624e+00 9.177101e+00
    endloop
  endfacet
  facet normal 1.000000e+00 -0.000000e+00 0.000000e+00
    outer loop
      vertex   2.000000e+01 3.682624e+00 9.177101e+00
      vertex   2.000000e+01 5.100000e+00 0.000000e+00
      vertex   2.000000e+01 3.828964e+00 9.430569e+00
    endloop
  endfacet
  facet normal 1.000000e+00 -0.000000e+00 0.000000e+00
    outer loop
      vertex   2.000000e+01 3.828964e+00 9.430569e+00
      vertex   2.000000e+01 5.100000e+00 0.000000e+00
      vertex   2.000000e+01 3.919407e+00 9.708924e+00
    endloop
  endfacet
  facet normal 1.000000e+00 -0.000000e+00 0.000000e+00
    outer loop
      vertex   2.000000e+01 3.919407e+00 9.708924e+00
      vertex   2.000000e+01 5.100000e+00 0.000000e+00
      vertex   2.000000e+01 3.950000e+00 1.000000e+01
    endloop
  endfacet
  facet normal 1.000000e+00 -0.000000e+00 0.000000e+00
    outer loop
      vertex   2.000000e+01 3.950000e+00 1.000000e+01
      vertex   2.000000e+01 5.100000e+00 0.000000e+00
      vertex   2.000000e+01 5.100000e+00 2.000000e+01
    endloop
  endfacet
  facet normal 1.000000e+00 0.000000e+00 -0.000000e+00
    outer loop
      vertex   2.000000e+01 3.950000e+00 1.000000e+01
      vertex   2.000000e+01 5.100000e+00 2.000000e+01
      vertex   2.000000e+01 3.919407e+00 1.029108e+01
    endloop
  endfacet
  facet normal 1.000000e+00 0.000000e+00 -0.000000e+00
    outer loop
      vertex   2.000000e+01 3.919407e+00 1.029108e+01
      vertex   2.000000e+01 5.100000e+00 2.000000e+01
      vertex   2.000000e+01 3.828964e+00 1.056943e+01
    endloop
  endfacet
  facet normal 1.000000e+00 0.000000e+00 -0.000000e+00
    outer loop
      vertex   2.000000e+01 3.828964e+00 1.056943e+01
      vertex   2.000000e+01 5.100000e+00 2.000000e+01
      vertex   2.000000e+01 3.682624e+00 1.082290e+01
    endloop
  endfacet
  facet normal 1.000000e+00 0.000000e+00 -0.000000e+00
    outer loop
      vertex   2.000000e+01 3.682624e+00 1.082290e+01
      vertex   2.000000e+01 5.100000e+00 2.000000e+01
      vertex   2.000000e+01 3.486783e+00 1.104040e+01
    endloop
  endfacet
  facet normal 1.000000e+00 0.000000e+00 -0.000000e+00
    outer loop
      vertex   2.000000e+01 3.486783e+00 1.104040e+01
      vertex   2.000000e+01 5.100000e+00 2.000000e+01
      vertex   2.000000e+01 3.250000e+00 1.121244e+01
    endloop
  endfacet
  facet normal 1.000000e+00 0.000000e+00 -0.000000e+00
    outer loop
      vertex   2.000000e+01 3.250000e+00 1.121244e+01
      vertex   2.000000e+01 5.100000e+00 2.000000e+01
      vertex   2.000000e+01 2.982624e+00 1.133148e+01
    endloop
  endfacet
  facet normal 1.000000e+00 0.000000e+00 -0.000000e+00
    outer loop
      vertex   2.000000e+01 2.982624e+00 1.133148e+01
      vertex   2.000000e+01 5.100000e+00 2.000000e+01
      vertex   2.000000e+01 2.696340e+00 1.139233e+01
    endloop
  endfacet
  facet normal 1.000000e+00 0.000000e+00 -0.000000e+00
    outer loop
      vertex   2.000000e+01 2.696340e+00 1.139233e+01
      vertex   2.000000e+01 5.100000e+00 2.000000e+01
      vertex   2.000000e+01 0.000000e+00 2.000000e+01
    endloop
  endfacet
  facet normal 1.000000e+00 0.000000e+00 0.000000e+00
    outer loop
      vertex   2.000000e+01 2.696340e+00 1.139233e+01
      vertex   2.000000e+01 0.000000e+00 2.000000e+01
      vertex   2.000000e+01 2.403660e+00 1.139233e+01
    endloop
  endfacet
  facet normal 1.000000e+00 0.000000e+00 0.000000e+00
    outer loop
      vertex   2.000000e+01 2.403660e+00 1.139233e+01
      vertex   2.000000e+01 0.000000e+00 2.000000e+01
      vertex   2.000000e+01 2.117376e+00 1.133148e+01
    endloop
  endfacet
  facet normal 1.000000e+00 0.000000e+00 0.000000e+00
    outer loop
      vertex   2.000000e+01 2.117376e+00 1.133148e+01
      vertex   2.000000e+01 0.000000e+00 2.000000e+01
      vertex   2.000000e+01 1.850000e+00 1.121244e+01
    endloop
  endfacet
  facet normal 1.000000e+00 0.000000e+00 0.000000e+00
    outer loop
      vertex   2.000000e+01 1.850000e+00 1.121244e+01
      vertex   2.000000e+01 0.000000e+00 2.000000e+01
      vertex   2.000000e+01 1.613217e+00 1.104040e+01
    endloop
  endfacet
  facet normal 1.000000e+00 0.000000e+00 0.000000e+00
    outer loop
      vertex   2.000000e+01 1.613217e+00 1.104040e+01
      vertex   2.000000e+01 0.000000e+00 2.000000e+01
      vertex   2.000000e+01 1.417376e+00 1.082290e+01
    endloop
  endfacet
  facet normal 1.000000e+00 0.000000e+00 0.000000e+00
    outer loop
      vertex   2.000000e+01 1.417376e+00 1.082290e+01
      vertex   2.000000e+01 0.000000e+00 2.000000e+01
      vertex   2.000000e+01 1.271036e+00 1.056943e+01
    endloop
  endfacet
  facet normal 1.000000e+00 0.000000e+00 0.000000e+00
    outer loop
      vertex   2.000000e+01 1.271036e+00 1.056943e+01
      vertex   2.000000e+01 0.000000e+00 2.000000e+01
      vertex   2.000000e+01 1.180593e+00 1.029108e+01
    endloop
  endfacet
  facet normal -6.162976e-33 -1.000000e+00 0.000000e+00
    outer loop
      vertex   0.000000e+00 0.000000e+00 0.000000e+00
      vertex   2.000000e+01 -1.232595e-31 0.000000e+00
      vertex   0.000000e+00 0.000000e+00 2.000000e+01
    endloop
  endfacet
  facet normal 0.000000e+00 -1.000000e+00 6.162976e-33
    outer loop
      vertex   0.000000e+00 0.000000e+00 2.000000e+01
      vertex   2.000000e+01 -1.232595e-31 0.000000e+00
      vertex   2.000000e+01 0.000000e+00 2.000000e+01
    endloop
  endfacet
  facet normal -1.000000e+00 0.000000e+00 0.000000e+00
    outer loop
      vertex   0.000000e+00 1.100000e+00 0.000000e+00
      vertex   0.000000e+00 0.000000e+00 0.000000e+00
      vertex   0.000000e+00 1.100000e+00 2.000000e+01
    endloop
  endfacet
  facet normal -1.000000e+00 -0.000000e+00 0.000000e+00
    outer loop
      vertex   0.000000e+00 1.100000e+00 2.000000e+01
      vertex   0.000000e+00 0.000000e+00 0.000000e+00
      vertex   0.000000e+00 0.000000e+00 2.000000e+01
    endloop
  endfacet
  facet normal 0.000000e+00 1.000000e+00 -0.000000e+00
    outer loop
      vertex   1.800000e+01 1.100000e+00 0.000000e+00
      vertex   0.000000e+00 1.100000e+00 0.000000e+00
      vertex   1.800000e+01 1.100000e+00 2.000000e+01
    endloop
  endfacet
  facet normal 0.000000e+00 1.000000e+00 0.000000e+00
    outer loop
      vertex   1.800000e+01 1.100000e+00 2.000000e+01
      vertex   0.000000e+00 1.100000e+00 0.000000e+00
      vertex   0.000000e+00 1.100000e+00 2.000000e+01
    endloop
  endfacet
  facet normal -0.000000e+00 0.000000e+00 1.000000e+00
    outer loop
      vertex   0.000000e+00 1.100000e+00 2.000000e+01
      vertex   0.000000e+00 0.000000e+00 2.000000e+01
      vertex   1.800000e+01 1.100000e+00 2.000000e+01
    endloop
  endfacet
  facet normal 0.000000e+00 0.000000e+00 1.000000e+00
    outer loop
      vertex   1.800000e+01 1.100000e+00 2.000000e+01
      vertex   0.000000e+00 0.000000e+00 2.000000e+01
      vertex   2.000000e+01 0.000000e+00 2.000000e+01
    endloop
  endfacet
  facet normal -0.000000e+00 0.000000e+00 1.000000e+00
    outer loop
      vertex   1.800000e+01 1.100000e+00 2.000000e+01
      vertex   2.000000e+01 0.000000e+00 2.000000e+01
      vertex   2.000000e+01 5.100000e+00 2.000000e+01
    endloop
  endfacet
  facet normal 0.000000e+00 0.000000e+00 1.000000e+00
    outer loop
      vertex   1.800000e+01 1.100000e+00 2.000000e+01
      vertex   2.000000e+01 5.100000e+00 2.000000e+01
      vertex   1.800000e+01 4.100000e+00 2.000000e+01
    endloop
  endfacet
  facet normal 0.000000e+00 -0.000000e+00 1.000000e+00
    outer loop
      vertex   1.800000e+01 4.100000e+00 2.000000e+01
      vertex   2.000000e+01 5.100000e+00 2.000000e+01
      vertex   0.000000e+00 5.100000e+00 2.000000e+01
    endloop
  endfacet
  facet normal 0.000000e+00 0.000000e+00 1.000000e+00
    outer loop
      vertex   1.800000e+01 4.100000e+00 2.000000e+01
      vertex   0.000000e+00 5.100000e+00 2.000000e+01
      vertex   0.000000e+00 4.100000e+00 2.000000e+01
    endloop
  endfacet
  facet normal 0.000000e+00 0.000000e+00 -1.000000e+00
    outer loop
      vertex   0.000000e+00 1.100000e+00 0.000000e+00
      vertex   1.800000e+01 1.100000e+00 0.000000e+00
      vertex   0.000000e+00 0.000000e+00 0.000000e+00
    endloop
  endfacet
  facet normal 0.000000e+00 0.000000e+00 -1.000000e+00
    outer loop
      vertex   0.000000e+00 0.000000e+00 0.000000e+00
      vertex   1.800000e+01 1.100000e+00 0.000000e+00
      vertex   2.000000e+01 -1.232595e-31 0.000000e+00
    endloop
  endfacet
  facet normal 0.000000e+00 0.000000e+00 -1.000000e+00
    outer loop
      vertex   2.000000e+01 -1.232595e-31 0.000000e+00
      vertex   1.800000e+01 1.100000e+00 0.000000e+00
      vertex   2.000000e+01 5.100000e+00 0.000000e+00
    endloop
  endfacet
  facet normal 0.000000e+00 0.000000e+00 -1.000000e+00
    outer loop
      vertex   2.000000e+01 5.100000e+00 0.000000e+00
      vertex   1.800000e+01 1.100000e+00 0.000000e+00
      vertex   1.800000e+01 4.100000e+00 0.000000e+00
    endloop
  endfacet
  facet normal -0.000000e+00 0.000000e+00 -1.000000e+00
    outer loop
      vertex   2.000000e+01 5.100000e+00 0.000000e+00
      vertex   1.800000e+01 4.100000e+00 0.000000e+00
      vertex   0.000000e+00 5.100000e+00 0.000000e+00
    endloop
  endfacet
  facet normal 0.000000e+00 0.000000e+00 -1.000000e+00
    outer loop
      vertex   0.000000e+00 5.100000e+00 0.000000e+00
      vertex   1.800000e+01 4.100000e+00 0.000000e+00
      vertex   0.000000e+00 4.100000e+00 0.000000e+00
    endloop
  endfacet
endsolid
